<svg width="300" height="253" viewBox="0 0 300 253" fill="none" xmlns="http://www.w3.org/2000/svg">
<path d="M145.892 6.71402C148.288 3.40505 153.217 3.40505 155.613 6.71401L163.714 17.9055C165.662 20.5963 169.425 21.1924 172.109 19.2353L183.3 11.0752C186.603 8.6671 191.294 10.1936 192.546 14.084L196.766 27.1862C197.785 30.3519 201.185 32.0844 204.346 31.0485L217.51 26.7336C221.399 25.4588 225.395 28.3664 225.379 32.4592L225.324 46.1748C225.31 49.5072 228.015 52.2121 231.348 52.1988L245.172 52.1439C249.272 52.1276 252.181 56.1365 250.893 60.0288L246.593 73.0233C245.544 76.1933 247.284 79.6097 250.465 80.6245L263.59 84.8111C267.501 86.0587 269.032 90.778 266.598 94.0843L258.482 105.11C256.5 107.802 257.101 111.595 259.817 113.543L270.971 121.541C274.309 123.934 274.309 128.899 270.971 131.293L259.817 139.29C257.101 141.238 256.5 145.031 258.482 147.723L266.598 158.749C269.032 162.055 267.501 166.774 263.59 168.022L250.465 172.209C247.284 173.223 245.544 176.64 246.593 179.81L250.893 192.804C252.181 196.697 249.272 200.706 245.172 200.689L231.348 200.634C228.015 200.621 225.31 203.326 225.324 206.658L225.379 220.374C225.395 224.467 221.399 227.374 217.51 226.1L204.346 221.785C201.185 220.749 197.785 222.481 196.766 225.647L192.546 238.749C191.294 242.64 186.603 244.166 183.3 241.758L172.109 233.598C169.425 231.641 165.662 232.237 163.714 234.928L155.613 246.119C153.217 249.428 148.288 249.428 145.892 246.119L137.791 234.928C135.843 232.237 132.08 231.641 129.395 233.598L118.205 241.758C114.902 244.166 110.211 242.64 108.959 238.749L104.739 225.647C103.72 222.481 100.32 220.749 97.1591 221.785L83.995 226.1C80.1057 227.374 76.1098 224.467 76.1262 220.374L76.1812 206.658C76.1945 203.326 73.4898 200.621 70.1574 200.634L56.3325 200.689C52.2326 200.706 49.3244 196.697 50.6124 192.804L54.9124 179.81C55.9613 176.64 54.2206 173.223 51.0396 172.209L37.9153 168.022C34.0039 166.774 32.4729 162.055 34.9068 158.749L43.0232 147.723C45.0051 145.031 44.4044 141.238 41.6876 139.29L30.534 131.293C27.1958 128.899 27.1958 123.934 30.534 121.541L41.6876 113.543C44.4044 111.595 45.0051 107.802 43.0232 105.11L34.9068 94.0843C32.4729 90.778 34.0039 86.0587 37.9153 84.8111L51.0396 80.6245C54.2206 79.6097 55.9613 76.1933 54.9124 73.0233L50.6124 60.0288C49.3244 56.1365 52.2326 52.1276 56.3325 52.1439L70.1574 52.1988C73.4898 52.2121 76.1945 49.5072 76.1812 46.1748L76.1262 32.4592C76.1098 28.3664 80.1057 25.4588 83.995 26.7336L97.1591 31.0485C100.32 32.0844 103.72 30.3519 104.739 27.1862L108.959 14.084C110.211 10.1936 114.902 8.6671 118.205 11.0752L129.395 19.2353C132.08 21.1924 135.843 20.5964 137.791 17.9055L145.892 6.71402Z" fill="#F40003"/>
<circle cx="151.354" cy="126.417" r="103.541" fill="white"/>
<path d="M248.876 125.815C248.876 180.007 204.944 223.938 150.752 223.938C96.5602 223.938 52.6289 180.007 52.6289 125.815C52.6289 71.6225 96.5602 27.6912 150.752 27.6912C204.944 27.6912 248.876 71.6225 248.876 125.815ZM56.7562 125.815C56.7562 177.727 98.8396 219.811 150.752 219.811C202.665 219.811 244.748 177.727 244.748 125.815C244.748 73.9019 202.665 31.8184 150.752 31.8184C98.8396 31.8184 56.7562 73.9019 56.7562 125.815Z" fill="#F40003"/>
<path d="M117.775 47.7211L125.129 55.2109L134.525 50.531L129.674 59.8399L137.028 67.3297L126.676 65.593L121.826 74.9019L120.278 64.5197L109.926 62.7831L119.322 58.1032L117.775 47.7211Z" fill="#F40003"/>
<path d="M83.5939 84.1914L89.0716 88.5462L94.906 84.6824L92.457 91.2377L97.9347 95.5926L90.9434 95.2891L88.4944 101.844L86.6226 95.1016L79.6313 94.7981L85.4657 90.9342L83.5939 84.1914Z" fill="#F40003"/>
<path d="M162.614 49.1333L168.092 53.4881L173.927 49.6243L171.478 56.1796L176.955 60.5345L169.964 60.231L167.515 66.7864L165.643 60.0435L158.652 59.74L164.486 55.8761L162.614 49.1333Z" fill="#F40003"/>
<path d="M190.921 189.974L180.429 190.295L177.492 200.372L173.945 190.493L163.453 190.813L171.753 184.387L168.205 174.508L176.882 180.415L185.182 173.989L182.245 184.066L190.921 189.974Z" fill="#F40003"/>
<path d="M215.583 170.08L210.334 165.451L204.31 169.012L207.091 162.59L201.842 157.961L208.809 158.621L211.59 152.199L213.115 159.029L220.081 159.689L214.057 163.25L215.583 170.08Z" fill="#F40003"/>
<path d="M134.875 201.059L129.627 196.43L123.603 199.991L126.383 193.569L121.135 188.94L128.102 189.6L130.882 183.178L132.407 190.008L139.374 190.668L133.35 194.229L134.875 201.059Z" fill="#F40003"/>
<rect x="0.388184" y="157.4" width="299.48" height="62.6063" transform="rotate(-23.4938 0.388184 157.4)" fill="white"/>
<path d="M34.6944 174.892C34.0171 173.296 33.6501 171.613 33.5932 169.841C33.5259 168.044 33.7911 166.28 34.3888 164.549C34.9866 162.818 35.9392 161.24 37.2467 159.816C38.5438 158.367 40.2233 157.206 42.2853 156.33C44.7399 155.288 47.0873 154.915 49.3272 155.21C51.5917 155.494 53.5253 156.296 55.1279 157.614L51.8639 162.824C51.0753 162.058 50.2401 161.558 49.3585 161.323C48.5015 161.079 47.6386 161.025 46.7697 161.162C45.915 161.264 45.1317 161.466 44.4199 161.769C43.2662 162.258 42.3587 162.919 41.6976 163.75C41.026 164.556 40.5694 165.46 40.3278 166.46C40.0862 167.461 40.0284 168.485 40.1543 169.532C40.2803 170.58 40.5412 171.57 40.9371 172.503C41.3748 173.534 41.9563 174.46 42.6818 175.282C43.4072 176.104 44.2208 176.758 45.1225 177.244C46.0488 177.72 47.0353 177.997 48.082 178.074C49.1182 178.126 50.1518 177.934 51.1828 177.496C51.9192 177.184 52.6158 176.743 53.2726 176.175C53.9293 175.606 54.4674 174.929 54.8868 174.142C55.3203 173.321 55.5266 172.408 55.5056 171.403L61.6742 172.217C61.7005 173.713 61.3173 175.164 60.5246 176.573C59.7319 177.981 58.691 179.249 57.402 180.375C56.1272 181.467 54.7657 182.32 53.3174 182.935C51.4273 183.737 49.523 184.096 47.6044 184.013C45.7 183.894 43.9 183.441 42.2045 182.654C40.5231 181.833 39.0247 180.76 37.7092 179.435C36.4079 178.075 35.4029 176.561 34.6944 174.892ZM80.2223 171.514C78.2586 172.348 76.3226 172.735 74.4145 172.676C72.5205 172.582 70.731 172.154 69.0459 171.391C67.3749 170.594 65.8992 169.54 64.6186 168.23C63.3277 166.895 62.3228 165.38 61.6038 163.687C60.864 161.944 60.4798 160.152 60.4512 158.31C60.4471 156.457 60.7614 154.673 61.3942 152.956C62.041 151.204 63.0111 149.633 64.3045 148.244C65.5979 146.855 67.1896 145.759 69.0797 144.957C71.0189 144.134 72.9355 143.769 74.8295 143.863C76.7376 143.922 78.5272 144.35 80.1982 145.148C81.8937 145.934 83.3869 146.995 84.6778 148.33C85.9584 149.641 86.9477 151.118 87.6458 152.763C88.3856 154.506 88.7698 156.298 88.7984 158.14C88.827 159.982 88.5179 161.779 87.8711 163.531C87.2138 165.258 86.2437 166.829 84.9607 168.243C83.6919 169.621 82.1124 170.712 80.2223 171.514ZM67.7841 161.15C68.2113 162.157 68.7753 163.076 69.4762 163.908C70.1667 164.716 70.9506 165.368 71.8277 165.865C72.7294 166.351 73.7036 166.633 74.7503 166.71C75.797 166.787 76.8727 166.592 77.9773 166.123C79.131 165.633 80.0436 164.985 80.7152 164.178C81.3764 163.347 81.8277 162.431 82.0693 161.431C82.3109 160.43 82.3687 159.406 82.2428 158.359C82.131 157.277 81.8667 156.244 81.4499 155.263C81.0227 154.256 80.4639 153.349 79.7734 152.541C79.0829 151.734 78.2868 151.087 77.385 150.6C76.4729 150.089 75.4987 149.808 74.4624 149.755C73.4262 149.702 72.368 149.905 71.288 150.364C70.1343 150.853 69.2216 151.502 68.55 152.308C67.903 153.104 67.4464 154.008 67.1803 155.019C66.9283 155.995 66.8582 157.024 66.97 158.106C67.0959 159.154 67.3673 160.168 67.7841 161.15ZM98.4932 163.498L87.3964 137.356L98.5529 132.62C99.8048 132.088 101.056 131.862 102.305 131.94C103.569 131.982 104.764 132.272 105.89 132.808C107.005 133.32 107.995 134.015 108.861 134.893C109.726 135.771 110.393 136.763 110.862 137.868C111.497 139.365 111.746 140.94 111.607 142.592C111.493 144.234 110.992 145.75 110.105 147.14C109.232 148.496 107.948 149.533 106.255 150.252L100.953 152.503L104.532 160.935L98.4932 163.498ZM98.7176 147.238L103.652 145.143C104.118 144.945 104.49 144.628 104.768 144.191C105.046 143.754 105.194 143.214 105.21 142.57C105.226 141.926 105.068 141.211 104.734 140.425C104.39 139.615 103.962 139.015 103.448 138.624C102.949 138.199 102.426 137.957 101.88 137.899C101.359 137.831 100.865 137.896 100.399 138.094L95.6856 140.094L98.7176 147.238ZM115.509 125.422L126.05 134.593L126.85 120.609L133.441 117.811L131.44 138.997L135.222 147.907L129.22 150.455L125.407 141.471L108.955 128.204L115.509 125.422ZM148.812 142.139L137.715 115.997L149.497 110.995C150.725 110.474 151.963 110.253 153.213 110.331C154.477 110.373 155.672 110.663 156.797 111.199C157.913 111.711 158.903 112.406 159.768 113.284C160.658 114.152 161.332 115.126 161.791 116.206C162.249 117.286 162.515 118.39 162.588 119.518C162.651 120.621 162.53 121.701 162.225 122.757C161.91 123.789 161.415 124.738 160.739 125.604L170.609 132.886L163.945 135.715L155.358 129.409L151.271 131.144L154.85 139.576L148.812 142.139ZM149.036 125.879L154.559 123.534C155.05 123.326 155.417 122.996 155.66 122.545C155.918 122.06 156.054 121.495 156.071 120.85C156.087 120.206 155.944 119.528 155.642 118.816C155.34 118.104 154.932 117.553 154.418 117.163C153.919 116.737 153.398 116.466 152.856 116.348C152.314 116.231 151.809 116.271 151.343 116.469L146.004 118.735L149.036 125.879ZM175.319 130.887L164.223 104.745L170.261 102.182L181.358 128.324L175.319 130.887ZM199.36 120.9C197.642 121.629 195.886 121.998 194.094 122.005C192.29 121.989 190.562 121.636 188.908 120.947C187.244 120.234 185.736 119.208 184.386 117.87C183.05 116.496 181.954 114.803 181.1 112.79C180.329 110.973 179.941 109.139 179.937 107.287C179.933 105.434 180.265 103.657 180.933 101.954C181.6 100.251 182.579 98.7346 183.869 97.4049C185.172 96.0404 186.745 94.9673 188.586 94.1859C190.991 93.1648 193.334 92.779 195.612 93.0285C197.891 93.278 199.842 94.0866 201.465 95.4543L198.411 100.749C197.332 99.8449 196.088 99.3014 194.677 99.1179C193.291 98.924 191.948 99.1032 190.647 99.6554C189.665 100.072 188.845 100.666 188.188 101.438C187.545 102.175 187.072 103.041 186.771 104.038C186.484 105 186.384 106.027 186.472 107.12C186.559 108.213 186.837 109.312 187.306 110.416C187.785 111.545 188.4 112.516 189.15 113.327C189.9 114.139 190.733 114.77 191.649 115.221C192.554 115.648 193.507 115.881 194.509 115.919C195.535 115.947 196.563 115.743 197.594 115.305C198.846 114.774 199.906 113.961 200.775 112.869C201.658 111.741 202.317 110.36 202.753 108.726L205.285 114.691C204.085 117.663 202.11 119.733 199.36 120.9ZM202.229 108.514L197.148 110.671L195.288 106.289L205.377 102.007L211.175 115.667L206.168 117.793L202.229 108.514ZM228.409 77.4994L239.505 103.642L233.467 106.205L228.919 95.4903L218.499 99.9134L223.047 110.628L217.008 113.191L205.911 87.0489L211.95 84.4857L216.248 94.6113L226.668 90.1882L222.37 80.0626L228.409 77.4994ZM257.43 71.438L249.477 74.8139L258.323 95.6541L252.285 98.2173L243.438 77.3771L235.448 80.7686L233.198 75.4665L255.179 66.1359L257.43 71.438Z" fill="#F40003"/>
</svg>
