<svg width="298" height="251" viewBox="0 0 298 251" fill="none" xmlns="http://www.w3.org/2000/svg">
<path d="M144.315 6.71401C146.71 3.40505 151.64 3.40505 154.035 6.71401L162.006 17.7253C163.954 20.4161 167.717 21.0122 170.401 19.055L181.412 11.0262C184.715 8.61815 189.406 10.1446 190.658 14.035L194.81 26.9257C195.829 30.0915 199.229 31.8239 202.39 30.788L215.342 26.5426C219.231 25.2678 223.227 28.1754 223.211 32.2682L223.157 45.7617C223.143 49.0941 225.848 51.799 229.18 51.7857L242.782 51.7317C246.882 51.7154 249.79 55.7243 248.502 59.6166L244.272 72.4002C243.223 75.5701 244.964 78.9866 248.145 80.0013L261.057 84.1201C264.968 85.3678 266.499 90.087 264.065 93.3933L256.08 104.24C254.099 106.932 254.699 110.725 257.416 112.673L268.389 120.541C271.727 122.934 271.727 127.899 268.389 130.293L257.416 138.16C254.699 140.109 254.099 143.901 256.081 146.593L264.065 157.44C266.499 160.746 264.968 165.465 261.057 166.713L248.145 170.832C244.964 171.847 243.223 175.263 244.272 178.433L248.502 191.217C249.79 195.109 246.882 199.118 242.782 199.102L229.18 199.047C225.848 199.034 223.143 201.739 223.157 205.071L223.211 218.565C223.227 222.658 219.231 225.565 215.342 224.291L202.39 220.045C199.229 219.009 195.829 220.742 194.81 223.908L190.658 236.798C189.406 240.689 184.715 242.215 181.412 239.807L170.401 231.778C167.717 229.821 163.954 230.417 162.006 233.108L154.035 244.119C151.64 247.428 146.71 247.428 144.315 244.119L136.344 233.108C134.396 230.417 130.632 229.821 127.948 231.778L116.938 239.807C113.635 242.215 108.944 240.689 107.692 236.798L103.54 223.908C102.521 220.742 99.1207 219.009 95.9602 220.045L83.008 224.291C79.1188 225.565 75.1228 222.658 75.1392 218.565L75.1934 205.071C75.2067 201.739 72.502 199.034 69.1696 199.047L55.5678 199.102C51.468 199.118 48.5598 195.109 49.8478 191.217L54.0779 178.433C55.1269 175.263 53.3862 171.847 50.2051 170.832L37.2933 166.713C33.382 165.465 31.8509 160.746 34.2849 157.44L42.2694 146.594C44.2513 143.901 43.6506 140.109 40.9338 138.16L29.9613 130.293C26.6231 127.899 26.6231 122.934 29.9613 120.541L40.9338 112.673C43.6506 110.725 44.2513 106.932 42.2694 104.24L34.2849 93.3933C31.8509 90.087 33.382 85.3678 37.2934 84.1201L50.2051 80.0013C53.3862 78.9866 55.1269 75.5701 54.0779 72.4002L49.8478 59.6166C48.5598 55.7243 51.468 51.7154 55.5678 51.7317L69.1696 51.7857C72.502 51.799 75.2067 49.0941 75.1934 45.7617L75.1392 32.2682C75.1228 28.1754 79.1188 25.2678 83.008 26.5426L95.9602 30.788C99.1206 31.8239 102.521 30.0915 103.54 26.9257L107.692 14.035C108.944 10.1446 113.635 8.61816 116.938 11.0262L127.948 19.0551C130.632 21.0122 134.396 20.4161 136.344 17.7253L144.315 6.71401Z" fill="#F40003"/>
<circle cx="149.771" cy="125.417" r="102.722" fill="white"/>
<path d="M246.521 124.819C246.521 178.583 202.938 222.167 149.174 222.167C95.411 222.167 51.8271 178.583 51.8271 124.819C51.8271 71.056 95.411 27.4722 149.174 27.4722C202.938 27.4722 246.521 71.056 246.521 124.819ZM55.9218 124.819C55.9218 176.321 97.6724 218.072 149.174 218.072C200.676 218.072 242.427 176.321 242.427 124.819C242.427 73.3174 200.676 31.5668 149.174 31.5668C97.6724 31.5668 55.9218 73.3174 55.9218 124.819Z" fill="#F40003"/>
<path d="M116.458 47.3436L123.754 54.7741L133.076 50.1313L128.263 59.3665L135.559 66.7971L125.289 65.0741L120.477 74.3093L118.942 64.0093L108.671 62.2864L117.993 57.6436L116.458 47.3436Z" fill="#F40003"/>
<path d="M82.5475 83.5254L87.9818 87.8459L93.7701 84.0125L91.3405 90.516L96.7748 94.8365L89.8388 94.5354L87.4092 101.039L85.5522 94.3493L78.6162 94.0483L84.4045 90.215L82.5475 83.5254Z" fill="#F40003"/>
<path d="M160.943 48.7444L166.378 53.0648L172.166 49.2315L169.736 55.735L175.171 60.0555L168.235 59.7544L165.805 66.2579L163.948 59.5683L157.012 59.2673L162.8 55.434L160.943 48.7444Z" fill="#F40003"/>
<path d="M189.025 188.471L178.616 188.79L175.702 198.787L172.183 188.986L161.774 189.304L170.008 182.929L166.489 173.128L175.097 178.988L183.331 172.613L180.417 182.611L189.025 188.471Z" fill="#F40003"/>
<path d="M213.491 168.734L208.284 164.142L202.308 167.675L205.066 161.304L199.86 156.712L206.771 157.366L209.53 150.995L211.043 157.771L217.954 158.426L211.978 161.959L213.491 168.734Z" fill="#F40003"/>
<path d="M133.422 199.468L128.215 194.876L122.239 198.409L124.997 192.038L119.791 187.446L126.702 188.1L129.461 181.729L130.974 188.505L137.885 189.16L131.909 192.692L133.422 199.468Z" fill="#F40003"/>
<rect y="156.155" width="297.111" height="62.1111" transform="rotate(-23.4938 0 156.155)" fill="white"/>
<path d="M26.1642 178.387L16.1771 154.859L21.6118 152.552L31.5989 176.08L26.1642 178.387ZM40.4623 156.44L46.1732 169.894L40.7385 172.201L30.7514 148.672L35.0594 146.844L51.8416 156.068L45.9619 142.216L51.3965 139.909L61.3836 163.437L56.9431 165.322L40.4623 156.44ZM70.5227 159.558L60.5357 136.03L69.3173 132.302C71.9021 131.205 74.2811 130.821 76.4544 131.15C78.6404 131.447 80.5551 132.303 82.1983 133.718C83.8322 135.11 85.1087 136.889 86.0277 139.054C87.0404 141.44 87.4359 143.723 87.2141 145.903C86.9922 148.083 86.2039 150.034 84.8491 151.756C83.5165 153.469 81.6682 154.827 79.3044 155.83L70.5227 159.558ZM80.4936 141.403C79.9122 140.033 79.1581 138.932 78.2313 138.1C77.2952 137.246 76.2413 136.729 75.0696 136.548C73.8885 136.346 72.6463 136.521 71.3428 137.074L67.9959 138.495L73.9319 152.479L77.2788 151.058C78.6043 150.496 79.5934 149.724 80.246 148.743C80.9113 147.731 81.2619 146.591 81.2978 145.324C81.3243 144.035 81.0562 142.728 80.4936 141.403ZM109.075 143.428C107.197 144.225 105.464 144.596 103.876 144.54C102.278 144.462 100.83 144.06 99.531 143.334C98.2447 142.576 97.1074 141.586 96.1189 140.363C95.1432 139.108 94.3271 137.708 93.6707 136.161L88.5646 124.132L93.9993 121.825L99.1053 133.855C99.4804 134.738 99.9345 135.562 100.468 136.327C100.991 137.069 101.588 137.676 102.258 138.148C102.927 138.62 103.651 138.912 104.429 139.025C105.229 139.129 106.093 138.984 107.021 138.59C107.971 138.187 108.686 137.662 109.168 137.014C109.64 136.344 109.927 135.61 110.031 134.809C110.125 133.987 110.087 133.13 109.917 132.238C109.747 131.345 109.479 130.468 109.113 129.606L104.007 117.577L109.442 115.27L114.548 127.3C115.242 128.934 115.679 130.548 115.859 132.14C116.062 133.723 115.973 135.233 115.593 136.672C115.204 138.089 114.473 139.377 113.4 140.536C112.35 141.686 110.908 142.65 109.075 143.428ZM135.335 112.414C135.221 112.332 134.919 112.265 134.428 112.213C133.927 112.138 133.322 112.095 132.613 112.083C131.904 112.071 131.154 112.116 130.362 112.217C129.571 112.319 128.822 112.519 128.115 112.819C127.187 113.213 126.539 113.684 126.172 114.231C125.795 114.756 125.747 115.35 126.029 116.012C126.254 116.543 126.62 116.883 127.127 117.033C127.655 117.173 128.336 117.21 129.168 117.144C129.991 117.055 130.998 116.94 132.19 116.8C133.861 116.56 135.371 116.492 136.719 116.598C138.058 116.681 139.203 117.043 140.152 117.683C141.124 118.313 141.919 119.357 142.538 120.816C143.1 122.141 143.336 123.371 143.244 124.505C143.142 125.617 142.793 126.639 142.198 127.569C141.615 128.469 140.849 129.276 139.901 129.991C138.944 130.684 137.902 131.27 136.775 131.748C135.627 132.236 134.398 132.627 133.089 132.922C131.793 133.185 130.503 133.342 129.221 133.391C127.928 133.418 126.687 133.319 125.497 133.094L125.871 127.343C126.006 127.416 126.383 127.504 127 127.606C127.608 127.687 128.336 127.743 129.183 127.775C130.044 127.775 130.967 127.708 131.954 127.576C132.941 127.444 133.887 127.186 134.793 126.802C135.765 126.389 136.417 125.93 136.75 125.423C137.105 124.908 137.165 124.374 136.931 123.821C136.677 123.225 136.226 122.869 135.578 122.753C134.951 122.628 134.15 122.616 133.176 122.716C132.224 122.808 131.126 122.922 129.88 123.06C128.257 123.227 126.853 123.237 125.669 123.088C124.506 122.929 123.524 122.551 122.723 121.952C121.943 121.345 121.3 120.444 120.794 119.251C120.091 117.594 119.887 116.038 120.182 114.583C120.489 113.097 121.184 111.785 122.266 110.648C123.338 109.489 124.658 108.577 126.227 107.911C127.332 107.442 128.448 107.124 129.577 106.958C130.728 106.783 131.83 106.706 132.882 106.729C133.957 106.742 134.932 106.797 135.807 106.895L135.335 112.414ZM163.272 98.0524L156.114 101.091L164.076 119.847L158.641 122.154L150.68 103.398L143.489 106.45L141.463 101.678L161.247 93.2805L163.272 98.0524ZM178.527 113.713L168.54 90.1846L179.144 85.6834C180.249 85.2145 181.364 85.0151 182.489 85.0852C183.626 85.1238 184.701 85.3844 185.714 85.8669C186.718 86.3273 187.609 86.9528 188.388 87.7433C189.189 88.5245 189.796 89.4011 190.208 90.3732C190.621 91.3452 190.86 92.3387 190.926 93.3537C190.982 94.3466 190.874 95.3184 190.599 96.2692C190.316 97.1978 189.87 98.0519 189.262 98.8313L198.145 105.385L192.147 107.931L184.419 102.256L180.741 103.817L183.962 111.406L178.527 113.713ZM178.729 99.0784L183.7 96.9685C184.142 96.7809 184.472 96.4843 184.691 96.0785C184.923 95.6413 185.046 95.1327 185.06 94.5529C185.075 93.9731 184.946 93.3629 184.674 92.7222C184.402 92.0816 184.035 91.5855 183.573 91.2341C183.124 90.8512 182.655 90.607 182.167 90.5013C181.679 90.3956 181.225 90.4318 180.805 90.61L176 92.6496L178.729 99.0784ZM205.367 102.32L195.38 78.792L200.814 76.4851L210.801 100.013L205.367 102.32ZM215.886 70.0877L221.751 67.5979L239.824 87.6939L234.257 90.057L230.198 85.5617L222.874 88.6703L223.321 94.6989L217.754 97.062L215.886 70.0877ZM227.713 82.1969L221.123 74.3176L222.146 84.56L227.713 82.1969ZM246.78 84.741L236.793 61.2129L242.228 58.9061L250.189 77.6623L261.589 72.8234L263.614 77.5953L246.78 84.741ZM93.4667 191.1L83.4796 167.572L92.2613 163.845C94.846 162.748 97.2251 162.364 99.3984 162.693C101.584 162.99 103.499 163.846 105.142 165.26C106.776 166.653 108.053 168.431 108.972 170.596C109.984 172.982 110.38 175.265 110.158 177.445C109.936 179.625 109.148 181.576 107.793 183.298C106.46 185.011 104.612 186.37 102.248 187.373L93.4667 191.1ZM103.438 172.945C102.856 171.576 102.102 170.475 101.175 169.643C100.239 168.789 99.1852 168.271 98.0136 168.091C96.8325 167.888 95.5902 168.063 94.2868 168.617L90.9398 170.037L96.8758 184.022L100.223 182.601C101.548 182.038 102.537 181.267 103.19 180.286C103.855 179.273 104.206 178.134 104.242 176.867C104.268 175.578 104 174.271 103.438 172.945ZM136.337 167.271L138.363 172.043L121.827 179.062L111.84 155.534L128.078 148.642L130.103 153.414L119.3 157.999L121.241 162.572L130.52 158.634L132.391 163.041L123.112 166.98L125.236 171.983L136.337 167.271ZM153.36 146.045C153.246 145.962 152.944 145.895 152.453 145.843C151.952 145.769 151.347 145.726 150.638 145.714C149.929 145.702 149.179 145.747 148.387 145.848C147.596 145.949 146.847 146.15 146.14 146.45C145.212 146.844 144.564 147.314 144.197 147.861C143.82 148.386 143.772 148.98 144.054 149.643C144.279 150.173 144.645 150.513 145.152 150.663C145.681 150.804 146.361 150.841 147.193 150.774C148.016 150.686 149.023 150.571 150.215 150.43C151.886 150.19 153.396 150.123 154.744 150.228C156.083 150.312 157.228 150.673 158.177 151.313C159.149 151.944 159.944 152.988 160.563 154.446C161.125 155.772 161.361 157.001 161.269 158.136C161.167 159.248 160.818 160.269 160.223 161.2C159.64 162.099 158.874 162.906 157.926 163.622C156.969 164.315 155.927 164.9 154.8 165.379C153.652 165.866 152.423 166.258 151.114 166.552C149.818 166.816 148.528 166.972 147.246 167.021C145.954 167.048 144.712 166.949 143.522 166.725L143.896 160.973C144.032 161.046 144.408 161.134 145.025 161.237C145.633 161.318 146.361 161.374 147.208 161.405C148.069 161.405 148.992 161.339 149.979 161.207C150.966 161.075 151.912 160.817 152.818 160.432C153.79 160.019 154.442 159.56 154.775 159.054C155.13 158.538 155.19 158.004 154.956 157.452C154.702 156.855 154.251 156.499 153.603 156.384C152.976 156.259 152.176 156.246 151.201 156.347C150.249 156.438 149.151 156.553 147.905 156.69C146.282 156.858 144.878 156.867 143.694 156.718C142.531 156.56 141.549 156.181 140.748 155.583C139.968 154.975 139.325 154.075 138.819 152.882C138.116 151.225 137.912 149.669 138.207 148.214C138.514 146.728 139.209 145.416 140.291 144.279C141.363 143.12 142.683 142.207 144.252 141.541C145.357 141.073 146.473 140.755 147.602 140.589C148.753 140.413 149.855 140.337 150.907 140.359C151.982 140.372 152.957 140.428 153.832 140.525L153.36 146.045ZM171.331 158.049L161.344 134.521L166.779 132.214L176.766 155.742L171.331 158.049ZM195.95 147.794C194.404 148.451 192.824 148.782 191.21 148.789C189.587 148.774 188.032 148.457 186.543 147.837C185.045 147.196 183.689 146.272 182.473 145.067C181.271 143.831 180.285 142.307 179.516 140.496C178.822 138.861 178.473 137.21 178.47 135.543C178.466 133.876 178.765 132.276 179.365 130.743C179.966 129.21 180.847 127.846 182.008 126.649C183.181 125.421 184.596 124.455 186.253 123.752C188.418 122.833 190.526 122.486 192.577 122.71C194.628 122.935 196.384 123.663 197.845 124.894L195.096 129.658C194.125 128.845 193.005 128.356 191.736 128.191C190.488 128.016 189.279 128.178 188.108 128.675C187.225 129.05 186.487 129.584 185.895 130.279C185.316 130.942 184.891 131.722 184.62 132.619C184.362 133.485 184.272 134.409 184.351 135.393C184.429 136.376 184.679 137.365 185.101 138.359C185.533 139.376 186.086 140.249 186.761 140.979C187.436 141.709 188.186 142.278 189.01 142.684C189.825 143.068 190.683 143.277 191.584 143.312C192.507 143.337 193.433 143.153 194.361 142.759C195.487 142.281 196.442 141.55 197.223 140.566C198.018 139.551 198.611 138.308 199.004 136.838L201.283 142.207C200.202 144.881 198.425 146.744 195.95 147.794ZM198.532 136.647L193.959 138.589L192.285 134.645L201.365 130.791L206.584 143.085L202.077 144.998L198.532 136.647ZM214.54 123.83L220.251 137.284L214.816 139.591L204.829 116.063L209.137 114.234L225.919 123.458L220.039 109.606L225.474 107.299L235.461 130.828L231.02 132.712L214.54 123.83Z" fill="#F40003"/>
</svg>
