<svg width="298" height="251" viewBox="0 0 298 251" fill="none" xmlns="http://www.w3.org/2000/svg">
<path d="M144.315 6.71401C146.71 3.40505 151.64 3.40505 154.035 6.71401L162.006 17.7253C163.954 20.4161 167.717 21.0122 170.401 19.055L181.412 11.0262C184.715 8.61815 189.406 10.1446 190.658 14.035L194.81 26.9257C195.829 30.0915 199.229 31.8239 202.39 30.788L215.342 26.5426C219.231 25.2678 223.227 28.1754 223.211 32.2682L223.157 45.7617C223.143 49.0941 225.848 51.799 229.18 51.7857L242.782 51.7317C246.882 51.7154 249.79 55.7243 248.502 59.6166L244.272 72.4002C243.223 75.5701 244.964 78.9866 248.145 80.0013L261.057 84.1201C264.968 85.3678 266.499 90.087 264.065 93.3933L256.08 104.24C254.099 106.932 254.699 110.725 257.416 112.673L268.389 120.541C271.727 122.934 271.727 127.899 268.389 130.293L257.416 138.16C254.699 140.109 254.099 143.901 256.081 146.593L264.065 157.44C266.499 160.746 264.968 165.465 261.057 166.713L248.145 170.832C244.964 171.847 243.223 175.263 244.272 178.433L248.502 191.217C249.79 195.109 246.882 199.118 242.782 199.102L229.18 199.047C225.848 199.034 223.143 201.739 223.157 205.071L223.211 218.565C223.227 222.658 219.231 225.565 215.342 224.291L202.39 220.045C199.229 219.009 195.829 220.742 194.81 223.908L190.658 236.798C189.406 240.689 184.715 242.215 181.412 239.807L170.401 231.778C167.717 229.821 163.954 230.417 162.006 233.108L154.035 244.119C151.64 247.428 146.71 247.428 144.315 244.119L136.344 233.108C134.396 230.417 130.632 229.821 127.948 231.778L116.938 239.807C113.635 242.215 108.944 240.689 107.692 236.798L103.54 223.908C102.521 220.742 99.1207 219.009 95.9602 220.045L83.008 224.291C79.1188 225.565 75.1228 222.658 75.1392 218.565L75.1934 205.071C75.2067 201.739 72.502 199.034 69.1696 199.047L55.5678 199.102C51.468 199.118 48.5598 195.109 49.8478 191.217L54.0779 178.433C55.1269 175.263 53.3862 171.847 50.2051 170.832L37.2933 166.713C33.382 165.465 31.8509 160.746 34.2849 157.44L42.2694 146.594C44.2513 143.901 43.6506 140.109 40.9338 138.16L29.9613 130.293C26.6231 127.899 26.6231 122.934 29.9613 120.541L40.9338 112.673C43.6506 110.725 44.2513 106.932 42.2694 104.24L34.2849 93.3933C31.8509 90.087 33.382 85.3678 37.2934 84.1201L50.2051 80.0013C53.3862 78.9866 55.1269 75.5701 54.0779 72.4002L49.8478 59.6166C48.5598 55.7243 51.468 51.7154 55.5678 51.7317L69.1696 51.7857C72.502 51.799 75.2067 49.0941 75.1934 45.7617L75.1392 32.2682C75.1228 28.1754 79.1188 25.2678 83.008 26.5426L95.9602 30.788C99.1206 31.8239 102.521 30.0915 103.54 26.9257L107.692 14.035C108.944 10.1446 113.635 8.61816 116.938 11.0262L127.948 19.0551C130.632 21.0122 134.396 20.4161 136.344 17.7253L144.315 6.71401Z" fill="#F40003"/>
<circle cx="149.771" cy="125.417" r="102.722" fill="white"/>
<path d="M246.521 124.819C246.521 178.583 202.938 222.167 149.174 222.167C95.411 222.167 51.8271 178.583 51.8271 124.819C51.8271 71.056 95.411 27.4722 149.174 27.4722C202.938 27.4722 246.521 71.056 246.521 124.819ZM55.9218 124.819C55.9218 176.321 97.6724 218.072 149.174 218.072C200.676 218.072 242.427 176.321 242.427 124.819C242.427 73.3174 200.676 31.5668 149.174 31.5668C97.6724 31.5668 55.9218 73.3174 55.9218 124.819Z" fill="#F40003"/>
<path d="M116.458 47.3436L123.754 54.7741L133.076 50.1313L128.263 59.3665L135.559 66.7971L125.289 65.0741L120.477 74.3093L118.942 64.0093L108.671 62.2864L117.993 57.6436L116.458 47.3436Z" fill="#F40003"/>
<path d="M82.5475 83.5253L87.9818 87.8457L93.7701 84.0124L91.3405 90.5159L96.7748 94.8363L89.8388 94.5353L87.4092 101.039L85.5522 94.3492L78.6162 94.0481L84.4045 90.2148L82.5475 83.5253Z" fill="#F40003"/>
<path d="M160.943 48.7445L166.378 53.0649L172.166 49.2316L169.736 55.7351L175.171 60.0555L168.235 59.7545L165.805 66.2579L163.948 59.5684L157.012 59.2673L162.8 55.434L160.943 48.7445Z" fill="#F40003"/>
<path d="M189.025 188.471L178.616 188.79L175.702 198.787L172.183 188.986L161.774 189.304L170.008 182.929L166.489 173.128L175.097 178.988L183.331 172.613L180.417 182.611L189.025 188.471Z" fill="#F40003"/>
<path d="M213.491 168.734L208.284 164.142L202.308 167.675L205.066 161.304L199.86 156.712L206.771 157.366L209.53 150.995L211.043 157.771L217.954 158.426L211.978 161.959L213.491 168.734Z" fill="#F40003"/>
<path d="M133.422 199.468L128.215 194.876L122.239 198.409L124.997 192.038L119.791 187.446L126.702 188.1L129.461 181.729L130.974 188.505L137.885 189.16L131.909 192.693L133.422 199.468Z" fill="#F40003"/>
<rect y="156.155" width="297.111" height="62.1111" transform="rotate(-23.4938 0 156.155)" fill="white"/>
<path d="M69.9525 148.423L59.5563 125.073L68.2715 121.193C70.8368 120.051 73.2088 119.625 75.3875 119.916C77.5784 120.176 79.5076 120.998 81.1753 122.383C82.8333 123.747 84.1406 125.503 85.0972 127.652C86.1515 130.02 86.5867 132.295 86.403 134.479C86.2192 136.662 85.4651 138.627 84.1406 140.373C82.838 142.109 81.0137 143.499 78.6677 144.543L69.9525 148.423ZM79.605 130.097C78.9998 128.738 78.2266 127.65 77.2854 126.834C76.3345 125.997 75.2717 125.498 74.0971 125.338C72.9126 125.156 71.6736 125.353 70.3801 125.929L67.0584 127.408L73.2376 141.286L76.5592 139.807C77.8747 139.222 78.8502 138.433 79.4855 137.441C80.133 136.417 80.4637 135.271 80.4775 134.004C80.4815 132.715 80.1907 131.413 79.605 130.097ZM95.1385 137.21L84.7423 113.86L90.1359 111.458L100.532 134.809L95.1385 137.21ZM113.302 109.341C113.188 109.26 112.884 109.198 112.392 109.155C111.89 109.089 111.284 109.057 110.575 109.057C109.866 109.058 109.117 109.116 108.328 109.231C107.538 109.346 106.793 109.559 106.091 109.872C105.17 110.282 104.531 110.763 104.173 111.317C103.805 111.848 103.768 112.443 104.061 113.101C104.295 113.627 104.667 113.96 105.176 114.101C105.708 114.233 106.389 114.258 107.22 114.177C108.041 114.074 109.046 113.942 110.235 113.78C111.901 113.511 113.41 113.417 114.76 113.499C116.1 113.559 117.251 113.901 118.211 114.524C119.194 115.138 120.007 116.168 120.651 117.615C121.237 118.93 121.494 120.156 121.421 121.292C121.339 122.405 121.008 123.433 120.429 124.374C119.862 125.283 119.111 126.103 118.175 126.835C117.23 127.545 116.199 128.149 115.08 128.646C113.94 129.154 112.719 129.567 111.415 129.884C110.124 130.17 108.837 130.349 107.556 130.421C106.264 130.47 105.021 130.393 103.827 130.189L104.101 124.432C104.238 124.502 104.615 124.584 105.234 124.676C105.844 124.746 106.572 124.79 107.42 124.806C108.28 124.791 109.203 124.709 110.187 124.559C111.171 124.41 112.113 124.135 113.012 123.735C113.977 123.306 114.621 122.835 114.945 122.323C115.29 121.801 115.341 121.266 115.097 120.718C114.834 120.126 114.377 119.778 113.726 119.674C113.097 119.56 112.297 119.561 111.324 119.679C110.374 119.787 109.278 119.92 108.035 120.08C106.415 120.276 105.011 120.309 103.824 120.181C102.659 120.043 101.671 119.682 100.859 119.097C100.069 118.503 99.4105 117.614 98.8834 116.43C98.1513 114.786 97.92 113.234 98.1895 111.774C98.4712 110.282 99.1429 108.959 100.205 107.803C101.257 106.625 102.561 105.69 104.118 104.997C105.214 104.509 106.325 104.172 107.45 103.986C108.598 103.79 109.698 103.694 110.751 103.699C111.826 103.693 112.802 103.731 113.679 103.814L113.302 109.341ZM128.521 122.347L118.125 98.997L128.09 94.5603C129.208 94.0625 130.33 93.8388 131.456 93.8892C132.594 93.908 133.673 94.1497 134.695 94.6145C135.706 95.0573 136.608 95.6672 137.401 96.444C138.193 97.2208 138.809 98.1026 139.248 99.0892C139.844 100.427 140.092 101.84 139.993 103.329C139.916 104.808 139.489 106.18 138.713 107.445C137.948 108.679 136.81 109.633 135.297 110.306L130.561 112.415L133.914 119.946L128.521 122.347ZM128.467 107.712L132.874 105.75C133.291 105.564 133.621 105.273 133.864 104.875C134.108 104.478 134.232 103.989 134.236 103.409C134.241 102.829 134.087 102.189 133.774 101.487C133.452 100.763 133.057 100.23 132.589 99.8867C132.133 99.5118 131.659 99.3025 131.167 99.259C130.696 99.2057 130.253 99.2717 129.836 99.4572L125.627 101.331L128.467 107.712ZM160.774 108.223C158.911 109.053 157.184 109.454 155.596 109.426C153.997 109.376 152.542 108.999 151.23 108.296C149.931 107.56 148.777 106.59 147.767 105.385C146.77 104.147 145.929 102.761 145.246 101.227L139.931 89.2883L145.324 86.887L150.639 98.8252C151.03 99.7022 151.498 100.518 152.045 101.273C152.581 102.006 153.188 102.603 153.866 103.063C154.544 103.523 155.273 103.803 156.053 103.902C156.854 103.992 157.716 103.832 158.636 103.422C159.579 103.002 160.286 102.464 160.755 101.809C161.216 101.131 161.49 100.391 161.58 99.5893C161.66 98.7656 161.607 97.9091 161.421 97.0197C161.235 96.1304 160.952 95.2582 160.571 94.4031L155.256 82.4649L160.65 80.0635L165.965 92.0018C166.687 93.6242 167.153 95.2298 167.361 96.8185C167.591 98.3974 167.529 99.9095 167.174 101.355C166.809 102.778 166.101 104.079 165.049 105.256C164.019 106.424 162.594 107.413 160.774 108.223ZM186.374 74.285L179.27 77.4478L187.558 96.0622L182.164 98.4636L173.877 79.8492L166.74 83.0266L164.632 78.2908L184.265 69.5492L186.374 74.285ZM213.243 78.9521L215.351 83.6879L198.94 90.9945L188.544 67.6443L204.659 60.4694L206.767 65.2053L196.046 69.9787L198.067 74.5172L207.275 70.4173L209.223 74.7914L200.014 78.8913L202.225 83.8573L213.243 78.9521ZM50.9462 196.293L40.55 172.942L51.0741 168.257C52.1703 167.769 53.2814 167.55 54.4072 167.6C55.5453 167.619 56.6249 167.861 57.6463 168.326C58.6578 168.768 59.5599 169.378 60.3523 170.155C61.1667 170.922 61.7887 171.788 62.2182 172.753C62.6477 173.717 62.9042 174.707 62.9878 175.72C63.0615 176.712 62.9696 177.686 62.7119 178.641C62.4444 179.574 62.0137 180.436 61.4196 181.226L70.4157 187.624L64.463 190.274L56.6372 184.735L52.9867 186.36L56.3398 193.891L50.9462 196.293ZM50.8928 181.657L55.8259 179.461C56.2644 179.265 56.5896 178.963 56.8013 178.553C57.0252 178.112 57.1394 177.602 57.1439 177.022C57.1484 176.442 57.0091 175.834 56.726 175.198C56.4429 174.562 56.0673 174.073 55.5992 173.729C55.1433 173.354 54.6704 173.118 54.1805 173.021C53.6906 172.924 53.2374 172.968 52.8208 173.154L48.0521 175.277L50.8928 181.657ZM88.9252 173.709L91.0337 178.444L74.6228 185.751L64.2266 162.401L80.3415 155.226L82.45 159.962L71.7287 164.735L73.7493 169.274L82.9579 165.174L84.9053 169.548L75.6968 173.648L77.9078 178.614L88.9252 173.709ZM102.614 153.506C102.5 153.426 102.196 153.364 101.704 153.32C101.202 153.255 100.596 153.222 99.8873 153.223C99.1782 153.223 98.4289 153.281 97.6395 153.396C96.85 153.511 96.1045 153.725 95.4029 154.037C94.482 154.447 93.8427 154.929 93.4848 155.482C93.1172 156.014 93.0798 156.608 93.3727 157.266C93.607 157.792 93.9788 158.126 94.4882 158.267C95.0195 158.398 95.7006 158.423 96.5315 158.342C97.3527 158.239 98.3578 158.107 99.5468 157.946C101.213 157.676 102.722 157.583 104.072 157.665C105.412 157.725 106.563 158.067 107.523 158.69C108.506 159.303 109.319 160.333 109.963 161.78C110.549 163.096 110.806 164.322 110.733 165.457C110.651 166.571 110.32 167.598 109.741 168.539C109.174 169.448 108.423 170.269 107.487 171.001C106.542 171.71 105.511 172.314 104.392 172.812C103.252 173.32 102.031 173.732 100.727 174.05C99.4357 174.336 98.1492 174.515 96.8675 174.586C95.576 174.636 94.3332 174.558 93.139 174.355L93.413 168.597C93.5495 168.668 93.9273 168.749 94.5463 168.842C95.1555 168.912 95.8842 168.955 96.7322 168.972C97.5924 168.957 98.5147 168.874 99.4991 168.725C100.483 168.576 101.425 168.301 102.324 167.901C103.289 167.471 103.933 167 104.257 166.489C104.602 165.967 104.653 165.432 104.409 164.884C104.146 164.292 103.689 163.944 103.038 163.839C102.409 163.725 101.609 163.727 100.636 163.844C99.686 163.952 98.5895 164.086 97.3469 164.245C95.7265 164.441 94.3229 164.475 93.1361 164.347C91.9712 164.208 90.9828 163.847 90.171 163.263C89.381 162.669 88.7225 161.78 88.1954 160.596C87.4633 158.951 87.232 157.399 87.5015 155.939C87.7832 154.448 88.4549 153.124 89.5166 151.969C90.5685 150.791 91.8728 149.856 93.4295 149.162C94.5258 148.674 95.6368 148.337 96.7624 148.151C97.9101 147.956 99.0102 147.86 100.063 147.864C101.138 147.859 102.114 147.897 102.991 147.979L102.614 153.506ZM128.149 162.156C126.395 162.937 124.659 163.316 122.941 163.293C121.235 163.238 119.618 162.881 118.089 162.221C116.573 161.53 115.229 160.605 114.056 159.446C112.873 158.265 111.945 156.918 111.272 155.405C110.579 153.848 110.205 152.242 110.15 150.585C110.117 148.918 110.372 147.307 110.914 145.752C111.469 144.165 112.317 142.737 113.459 141.466C114.601 140.196 116.016 139.185 117.705 138.433C119.437 137.662 121.156 137.304 122.862 137.359C124.58 137.382 126.197 137.739 127.713 138.43C129.251 139.112 130.611 140.043 131.794 141.224C132.967 142.383 133.88 143.697 134.534 145.166C135.227 146.723 135.601 148.33 135.656 149.987C135.711 151.644 135.461 153.266 134.906 154.852C134.342 156.417 133.493 157.846 132.361 159.138C131.241 160.398 129.837 161.405 128.149 162.156ZM116.793 153.026C117.193 153.924 117.715 154.743 118.359 155.481C118.993 156.197 119.709 156.772 120.506 157.205C121.325 157.628 122.206 157.866 123.149 157.919C124.092 157.972 125.057 157.779 126.044 157.34C127.074 156.881 127.885 156.284 128.477 155.547C129.059 154.789 129.451 153.958 129.652 153.054C129.854 152.15 129.89 151.227 129.76 150.287C129.643 149.314 129.389 148.39 128.998 147.513C128.598 146.614 128.081 145.806 127.447 145.09C126.813 144.374 126.086 143.805 125.267 143.381C124.438 142.936 123.557 142.698 122.624 142.666C121.69 142.635 120.741 142.835 119.777 143.264C118.746 143.723 117.935 144.32 117.344 145.057C116.774 145.783 116.377 146.604 116.154 147.518C115.942 148.4 115.895 149.327 116.013 150.299C116.143 151.24 116.403 152.149 116.793 153.026ZM144.464 154.656L134.068 131.306L139.461 128.904L147.749 147.519L159.062 142.482L161.171 147.217L144.464 154.656ZM174.983 141.304C173.12 142.134 171.393 142.535 169.805 142.506C168.206 142.456 166.751 142.08 165.439 141.376C164.14 140.641 162.986 139.671 161.976 138.465C160.979 137.228 160.138 135.842 159.455 134.307L154.14 122.369L159.533 119.968L164.848 131.906C165.239 132.783 165.707 133.599 166.254 134.354C166.79 135.087 167.397 135.684 168.075 136.144C168.753 136.604 169.482 136.884 170.261 136.983C171.063 137.073 171.925 136.913 172.845 136.503C173.788 136.083 174.495 135.545 174.964 134.889C175.425 134.211 175.699 133.472 175.789 132.67C175.869 131.846 175.816 130.99 175.63 130.1C175.444 129.211 175.161 128.339 174.78 127.484L169.465 115.546L174.859 113.144L180.174 125.082C180.896 126.705 181.362 128.31 181.57 129.899C181.8 131.478 181.738 132.99 181.383 134.435C181.018 135.859 180.31 137.159 179.258 138.337C178.228 139.505 176.803 140.494 174.983 141.304ZM200.583 107.366L193.479 110.528L201.767 129.143L196.373 131.544L188.086 112.93L180.949 116.107L178.841 111.371L198.474 102.63L200.583 107.366ZM213.149 124.075L202.753 100.725L208.146 98.3236L218.543 121.674L213.149 124.075ZM234.969 114.597C233.215 115.378 231.479 115.756 229.761 115.733C228.055 115.678 226.438 115.321 224.91 114.662C223.394 113.971 222.049 113.046 220.876 111.886C219.694 110.705 218.766 109.358 218.092 107.846C217.399 106.289 217.025 104.682 216.971 103.025C216.938 101.358 217.193 99.7473 217.735 98.1922C218.29 96.6055 219.138 95.177 220.28 93.9066C221.422 92.6363 222.837 91.6253 224.525 90.8736C226.257 90.1025 227.976 89.7444 229.682 89.7993C231.4 89.8225 233.017 90.1797 234.533 90.8707C236.071 91.5521 237.432 92.4833 238.614 93.6643C239.787 94.8235 240.701 96.1376 241.355 97.6066C242.048 99.1632 242.422 100.77 242.476 102.427C242.531 104.084 242.281 105.706 241.727 107.293C241.162 108.858 240.314 110.286 239.182 111.578C238.062 112.839 236.657 113.845 234.969 114.597ZM223.614 105.466C224.014 106.365 224.536 107.183 225.18 107.921C225.814 108.637 226.529 109.212 227.327 109.645C228.146 110.069 229.027 110.307 229.97 110.36C230.913 110.413 231.878 110.22 232.864 109.78C233.895 109.322 234.706 108.724 235.298 107.988C235.879 107.23 236.271 106.398 236.473 105.494C236.675 104.59 236.711 103.668 236.581 102.727C236.463 101.755 236.209 100.83 235.819 99.9532C235.418 99.0543 234.901 98.2468 234.267 97.5308C233.633 96.8148 232.907 96.245 232.088 95.8216C231.259 95.3762 230.378 95.1379 229.444 95.1069C228.511 95.0758 227.562 95.275 226.597 95.7045C225.567 96.1633 224.756 96.7609 224.164 97.4972C223.594 98.2237 223.198 99.044 222.974 99.9579C222.763 100.84 222.716 101.767 222.833 102.74C222.963 103.68 223.223 104.589 223.614 105.466ZM250.733 91.3424L256.678 104.695L251.285 107.096L240.888 83.7459L245.164 81.8424L262.104 90.772L255.984 77.025L261.377 74.6236L271.774 97.9739L267.367 99.936L250.733 91.3424Z" fill="#F40003"/>
</svg>
