<svg width="250" height="250" viewBox="0 0 250 250" fill="none" xmlns="http://www.w3.org/2000/svg">
<path d="M44.125 206.574C44.125 203.719 46.4395 201.404 49.2945 201.404H200.705C203.561 201.404 205.875 203.719 205.875 206.574C205.875 209.428 203.561 211.742 200.705 211.742H49.2945C46.4395 211.742 44.125 209.428 44.125 206.574Z" fill="#F40003"/>
<path d="M44.125 41.1518C44.125 38.2969 46.4395 35.9824 49.2945 35.9824H200.705C203.561 35.9824 205.875 38.2969 205.875 41.1518C205.875 44.0068 203.561 46.3213 200.705 46.3213H49.2945C46.4395 46.3213 44.125 44.0068 44.125 41.1518Z" fill="#F40003"/>
<path d="M63.3804 55.3516C63.3804 47.4662 69.7727 41.074 77.6579 41.074H172.079C179.964 41.074 186.357 47.4662 186.357 55.3516V192.88C186.357 200.766 179.964 207.158 172.079 207.158H77.6579C69.7727 207.158 63.3804 200.766 63.3804 192.88V55.3516Z" fill="#F40003"/>
<path fill-rule="evenodd" clip-rule="evenodd" d="M77.6579 37.5047H172.079C181.936 37.5047 189.926 45.4949 189.926 55.3516V192.88C189.926 202.736 181.936 210.727 172.079 210.727H77.6579C67.8015 210.727 59.811 202.736 59.811 192.88V55.3516C59.811 45.4949 67.8015 37.5047 77.6579 37.5047ZM77.6579 41.074C69.7728 41.074 63.3804 47.4664 63.3804 55.3516V192.88C63.3804 200.766 69.7728 207.158 77.6579 207.158H172.079C179.964 207.158 186.357 200.766 186.357 192.88V55.3516C186.357 47.4664 179.964 41.074 172.079 41.074H77.6579Z" fill="#F40003"/>
<path d="M63.3804 187.007H186.357V193.244H63.3804V187.007Z" fill="#F40003"/>
<path d="M51.7856 41.9561C51.7856 36.042 56.5798 31.2479 62.4938 31.2479H187.244C193.158 31.2479 197.951 36.042 197.951 41.9561V42.9567C197.951 48.8707 193.158 53.6649 187.244 53.6649H62.4938C56.5798 53.6649 51.7856 48.8707 51.7856 42.9567V41.9561Z" fill="white"/>
<path fill-rule="evenodd" clip-rule="evenodd" d="M62.4938 27.6783H187.244C195.129 27.6783 201.522 34.0705 201.522 41.9559V42.9565C201.522 50.8418 195.129 57.234 187.244 57.234H62.4938C54.6085 57.234 48.2163 50.8418 48.2163 42.9565V41.9559C48.2163 34.0705 54.6085 27.6783 62.4938 27.6783ZM62.4938 31.2477C56.5798 31.2477 51.7856 36.0418 51.7856 41.9559V42.9565C51.7856 48.8703 56.5798 53.6647 62.4938 53.6647H187.244C193.158 53.6647 197.951 48.8703 197.951 42.9565V41.9559C197.951 36.0418 193.158 31.2477 187.244 31.2477H62.4938Z" fill="#F40003"/>
<path fill-rule="evenodd" clip-rule="evenodd" d="M158.097 36.852C158.097 35.8664 158.896 35.0674 159.881 35.0674H191.188C192.173 35.0674 192.972 35.8664 192.972 36.852C192.972 37.8377 192.173 38.6367 191.188 38.6367H159.881C158.896 38.6367 158.097 37.8377 158.097 36.852Z" fill="#F40003"/>
<path d="M61.0613 53.6646H188.676C192.071 53.6646 195.039 51.8408 196.656 49.1195L53.1758 49.2761C54.8121 51.9105 57.7318 53.6646 61.0613 53.6646Z" fill="#F40003"/>
<path d="M51.7856 205.832C51.7856 199.918 56.5798 195.123 62.4938 195.123H187.244C193.158 195.123 197.951 199.918 197.951 205.832V208.045C197.951 213.959 193.158 218.752 187.244 218.752H62.4938C56.5798 218.752 51.7856 213.959 51.7856 208.045V205.832Z" fill="white"/>
<path fill-rule="evenodd" clip-rule="evenodd" d="M62.4938 191.554H187.244C195.129 191.554 201.522 197.947 201.522 205.832V208.045C201.522 215.93 195.129 222.322 187.244 222.322H62.4938C54.6085 222.322 48.2163 215.93 48.2163 208.045V205.832C48.2163 197.947 54.6085 191.554 62.4938 191.554ZM62.4938 195.123C56.5798 195.123 51.7856 199.918 51.7856 205.832V208.045C51.7856 213.959 56.5798 218.752 62.4938 218.752H187.244C193.158 218.752 197.951 213.959 197.951 208.045V205.832C197.951 199.918 193.158 195.123 187.244 195.123H62.4938Z" fill="#F40003"/>
<path fill-rule="evenodd" clip-rule="evenodd" d="M56.061 202.273C56.061 201.287 56.8601 200.488 57.8456 200.488H101.52C102.506 200.488 103.305 201.287 103.305 202.273C103.305 203.26 102.506 204.059 101.52 204.059H57.8456C56.8601 204.059 56.061 203.26 56.061 202.273Z" fill="#F40003"/>
<path fill-rule="evenodd" clip-rule="evenodd" d="M177.229 210.959C177.229 209.975 178.028 209.174 179.013 209.174H197.951C198.938 209.174 199.736 209.975 199.736 210.959C199.736 211.945 198.938 212.744 197.951 212.744H179.013C178.028 212.744 177.229 211.945 177.229 210.959Z" fill="#F40003"/>
<path d="M61.0613 219.086H188.676C192.071 219.086 195.039 217.262 196.656 214.541L53.1758 214.697C54.8121 217.332 57.7318 219.086 61.0613 219.086Z" fill="#F40003"/>
<path fill-rule="evenodd" clip-rule="evenodd" d="M77.3184 73.183C77.3184 72.1973 78.1174 71.3983 79.1029 71.3983H171.67C172.655 71.3983 173.454 72.1973 173.454 73.183C173.454 74.1686 172.655 74.9676 171.67 74.9676H79.1029C78.1174 74.9676 77.3184 74.1686 77.3184 73.183Z" fill="#FDF6EC"/>
<path fill-rule="evenodd" clip-rule="evenodd" d="M77.3184 103.91C77.3184 102.924 78.1174 102.125 79.1029 102.125H171.67C172.655 102.125 173.454 102.924 173.454 103.91C173.454 104.895 172.655 105.694 171.67 105.694H79.1029C78.1174 105.694 77.3184 104.895 77.3184 103.91Z" fill="#FDF6EC"/>
<path fill-rule="evenodd" clip-rule="evenodd" d="M77.3184 113.379C77.3184 112.393 78.1174 111.594 79.1029 111.594H171.67C172.655 111.594 173.454 112.393 173.454 113.379C173.454 114.364 172.655 115.163 171.67 115.163H79.1029C78.1174 115.163 77.3184 114.364 77.3184 113.379Z" fill="#FDF6EC"/>
<path fill-rule="evenodd" clip-rule="evenodd" d="M77.3184 122.848C77.3184 121.862 78.1174 121.063 79.1029 121.063H171.67C172.655 121.063 173.454 121.862 173.454 122.848C173.454 123.834 172.655 124.633 171.67 124.633H79.1029C78.1174 124.633 77.3184 123.834 77.3184 122.848Z" fill="#FDF6EC"/>
<path fill-rule="evenodd" clip-rule="evenodd" d="M77.3184 132.124C77.3184 131.138 78.1174 130.339 79.1029 130.339H134.566C135.551 130.339 136.35 131.138 136.35 132.124C136.35 133.11 135.551 133.909 134.566 133.909H79.1029C78.1174 133.909 77.3184 133.11 77.3184 132.124Z" fill="#FDF6EC"/>
<path fill-rule="evenodd" clip-rule="evenodd" d="M77.3184 82.4377C77.3184 81.4522 78.1174 80.6531 79.1029 80.6531H129.632C130.618 80.6531 131.417 81.4522 131.417 82.4377C131.417 83.4234 130.618 84.2225 129.632 84.2225H79.1029C78.1174 84.2225 77.3184 83.4234 77.3184 82.4377Z" fill="#FDF6EC"/>
<path fill-rule="evenodd" clip-rule="evenodd" d="M77.3184 167.274C77.3184 166.289 78.1174 165.49 79.1029 165.49H104.896C105.882 165.49 106.681 166.289 106.681 167.274C106.681 168.26 105.882 169.059 104.896 169.059H79.1029C78.1174 169.059 77.3184 168.26 77.3184 167.274Z" fill="#FDF6EC"/>
<path fill-rule="evenodd" clip-rule="evenodd" d="M158.088 173.753L164.05 178.169V160.145H152.126V178.169L158.088 173.753Z" fill="#FDF6EC"/>
<path d="M172.056 155.186C172.056 156.896 170.054 157.817 169.478 159.325C168.892 160.856 169.724 162.969 168.658 164.176C167.366 165.64 165.049 165.137 163.239 165.937C161.56 166.679 160.418 168.778 158.464 168.778C156.51 168.778 155.368 166.679 153.689 165.937C151.879 165.137 149.562 165.64 148.27 164.176C147.204 162.969 148.036 160.856 147.45 159.325C146.874 157.817 144.872 156.896 144.872 155.186C144.872 153.475 146.874 152.554 147.45 151.046C147.97 149.688 147.015 147.718 147.918 146.61C149.119 145.134 150.624 145.602 152.336 144.736C154.178 143.804 156.259 141.593 158.464 141.593C160.668 141.593 162.75 143.804 164.592 144.736C166.304 145.602 167.809 145.134 169.01 146.61C169.913 147.718 168.958 149.688 169.478 151.046C170.054 152.554 172.056 153.475 172.056 155.186Z" fill="white"/>
<path fill-rule="evenodd" clip-rule="evenodd" d="M154.777 145.319C154.279 145.663 153.719 146.037 153.142 146.329C152.236 146.787 151.293 146.982 150.691 147.107C150.559 147.134 150.443 147.158 150.348 147.181C149.797 147.312 149.56 147.429 149.321 147.714C149.317 147.738 149.269 147.929 149.32 148.599C149.325 148.666 149.331 148.739 149.338 148.819C149.364 149.137 149.398 149.545 149.4 149.926C149.403 150.421 149.36 151.05 149.117 151.684C148.875 152.319 148.506 152.831 148.18 153.226C147.964 153.487 147.7 153.771 147.487 154C147.404 154.089 147.329 154.171 147.268 154.238C146.702 154.863 146.656 155.07 146.656 155.186C146.656 155.301 146.702 155.508 147.268 156.134C147.329 156.201 147.404 156.282 147.487 156.371C147.7 156.6 147.964 156.885 148.18 157.145C148.506 157.54 148.875 158.053 149.117 158.687C149.36 159.321 149.433 159.952 149.458 160.472C149.476 160.838 149.471 161.242 149.467 161.569C149.466 161.682 149.465 161.785 149.465 161.875C149.463 162.789 149.572 162.955 149.608 162.996C149.811 163.225 150.152 163.395 151.071 163.544C151.205 163.566 151.361 163.587 151.534 163.612C152.316 163.72 153.442 163.877 154.41 164.305C155.037 164.582 155.563 164.962 155.988 165.304C156.206 165.48 156.499 165.734 156.746 165.948C156.895 166.076 157.027 166.191 157.117 166.266C157.818 166.851 158.165 166.993 158.464 166.993C158.763 166.993 159.11 166.851 159.811 166.266C159.901 166.191 160.033 166.076 160.182 165.948C160.429 165.734 160.722 165.48 160.94 165.304C161.365 164.962 161.891 164.582 162.518 164.305C163.486 163.877 164.612 163.72 165.395 163.612C165.567 163.587 165.723 163.566 165.857 163.544C166.776 163.395 167.118 163.225 167.32 162.996C167.356 162.955 167.465 162.789 167.463 161.875C167.463 161.785 167.462 161.682 167.461 161.569C167.457 161.242 167.452 160.838 167.47 160.472C167.495 159.952 167.569 159.321 167.811 158.687C168.054 158.053 168.422 157.54 168.748 157.145C168.964 156.885 169.228 156.6 169.441 156.372C169.524 156.282 169.599 156.201 169.66 156.134C170.227 155.508 170.272 155.301 170.272 155.186C170.272 155.07 170.227 154.863 169.66 154.238C169.599 154.171 169.524 154.089 169.441 154C169.228 153.771 168.964 153.487 168.748 153.226C168.422 152.831 168.054 152.319 167.811 151.684C167.568 151.05 167.525 150.421 167.528 149.926C167.53 149.545 167.564 149.137 167.59 148.819C167.597 148.74 167.603 148.666 167.608 148.599C167.659 147.929 167.611 147.738 167.608 147.714C167.369 147.429 167.131 147.312 166.58 147.181C166.485 147.158 166.369 147.134 166.237 147.107C165.635 146.982 164.692 146.787 163.786 146.329C163.209 146.037 162.649 145.663 162.152 145.319C161.981 145.201 161.82 145.088 161.664 144.978C161.331 144.745 161.02 144.526 160.689 144.31C159.697 143.663 159.006 143.378 158.464 143.378C157.922 143.378 157.231 143.663 156.239 144.31C155.908 144.526 155.597 144.745 155.264 144.978C155.108 145.088 154.947 145.201 154.777 145.319ZM154.289 141.321C155.349 140.629 156.802 139.809 158.464 139.809C160.126 139.809 161.579 140.629 162.639 141.321C163.023 141.571 163.418 141.848 163.774 142.098C163.918 142.199 164.056 142.296 164.184 142.385C164.663 142.717 165.054 142.97 165.397 143.144C165.844 143.369 166.205 143.446 166.743 143.561C166.936 143.602 167.153 143.648 167.405 143.708C168.321 143.926 169.438 144.309 170.394 145.483C171.338 146.642 171.225 148.109 171.17 148.827C171.169 148.842 171.168 148.856 171.167 148.87C171.158 148.99 171.149 149.1 171.141 149.201C171.117 149.493 171.098 149.716 171.097 149.947C171.095 150.237 171.128 150.364 171.145 150.409C171.19 150.528 171.288 150.696 171.499 150.952C171.649 151.133 171.789 151.284 171.962 151.469C172.063 151.577 172.175 151.697 172.306 151.842C172.885 152.482 173.841 153.591 173.841 155.186C173.841 156.78 172.885 157.889 172.306 158.529C172.175 158.674 172.063 158.795 171.962 158.903C171.789 159.088 171.649 159.238 171.499 159.42C171.288 159.675 171.19 159.843 171.145 159.962C171.094 160.094 171.052 160.301 171.035 160.646C171.023 160.897 171.026 161.13 171.029 161.414C171.031 161.551 171.032 161.7 171.033 161.869C171.034 162.696 171.026 164.191 169.996 165.357C168.907 166.591 167.444 166.902 166.429 167.067C166.128 167.116 165.861 167.155 165.621 167.19C164.91 167.293 164.43 167.362 163.961 167.57C163.748 167.664 163.502 167.824 163.179 168.084C162.964 168.257 162.812 168.391 162.639 168.542C162.491 168.671 162.329 168.814 162.098 169.006C161.32 169.656 160.119 170.563 158.464 170.563C156.809 170.563 155.608 169.656 154.83 169.006C154.6 168.814 154.437 168.671 154.289 168.542C154.116 168.391 153.964 168.257 153.749 168.084C153.426 167.824 153.18 167.664 152.967 167.57C152.498 167.362 152.018 167.293 151.307 167.19C151.067 167.155 150.8 167.116 150.499 167.067C149.484 166.902 148.021 166.591 146.932 165.357C145.902 164.191 145.894 162.696 145.896 161.869C145.896 161.7 145.897 161.551 145.899 161.414C145.903 161.13 145.905 160.897 145.893 160.646C145.876 160.301 145.834 160.094 145.784 159.962C145.738 159.843 145.64 159.675 145.429 159.42C145.279 159.238 145.139 159.088 144.966 158.903C144.865 158.795 144.753 158.674 144.622 158.529C144.043 157.889 143.087 156.78 143.087 155.186C143.087 153.591 144.043 152.482 144.622 151.842C144.753 151.697 144.865 151.577 144.966 151.469C145.139 151.284 145.279 151.133 145.429 150.952C145.64 150.696 145.738 150.528 145.784 150.409C145.801 150.364 145.833 150.237 145.831 149.947C145.83 149.716 145.812 149.493 145.787 149.201C145.779 149.1 145.77 148.99 145.761 148.87C145.76 148.856 145.759 148.842 145.758 148.827C145.703 148.109 145.59 146.642 146.534 145.483C147.49 144.309 148.607 143.926 149.523 143.708C149.775 143.648 149.992 143.602 150.186 143.561C150.723 143.446 151.084 143.369 151.531 143.144C151.874 142.97 152.265 142.717 152.745 142.385C152.872 142.296 153.01 142.2 153.154 142.098C153.51 141.848 153.905 141.571 154.289 141.321Z" fill="#FDF6EC"/>
<path fill-rule="evenodd" clip-rule="evenodd" d="M165.178 154.978C165.178 158.784 162.122 161.93 158.279 161.93C154.435 161.93 151.379 158.784 151.379 154.978C151.379 151.172 154.435 148.026 158.279 148.026C162.122 148.026 165.178 151.172 165.178 154.978ZM158.279 159.156C160.557 159.156 162.404 157.285 162.404 154.978C162.404 152.67 160.557 150.8 158.279 150.8C156 150.8 154.154 152.67 154.154 154.978C154.154 157.285 156 159.156 158.279 159.156Z" fill="#F40003"/>
</svg>
