<svg width="184" height="184" viewBox="0 0 184 184" fill="none" xmlns="http://www.w3.org/2000/svg">
<path d="M92.0001 0.531616C41.4837 0.531616 0.531738 41.4832 0.531738 92C0.531738 142.516 41.4837 183.468 92.0001 183.468C142.517 183.468 183.468 142.516 183.468 92C183.468 41.4832 142.517 0.531616 92.0001 0.531616ZM77.8384 63.3883H55.4278V129.443H45.8544V63.3883H23.5528V55.3386H77.8384V63.3883ZM149.529 129.443L147.788 96.4605C147.244 86.234 146.592 73.8324 146.592 64.8027H146.374C143.763 73.2886 140.826 82.5355 137.127 92.6527L124.18 129.008H117L105.034 93.3051C101.552 82.8617 98.7243 73.5058 96.6575 64.8027H96.4392C96.222 73.941 95.6786 86.125 95.0255 97.2222L93.0673 129.443H84.0376L89.1509 55.3386H101.226L113.737 90.8035C116.783 99.8324 119.177 108.664 121.134 116.279H121.352C123.31 108.882 125.921 100.051 129.185 90.8035L142.239 55.3386H154.315L158.884 129.443H149.529Z" fill="#F40003"/>
</svg>
