<svg width="200" height="200" viewBox="0 0 200 200" fill="none" xmlns="http://www.w3.org/2000/svg">
<path fill-rule="evenodd" clip-rule="evenodd" d="M65.2966 104.859H38.9669V133.468H65.2962L65.2966 104.859ZM37.7888 102.504H66.4751C67.1255 102.504 67.6528 103.03 67.6528 103.682V134.646C67.6528 135.297 67.1255 135.823 66.4751 135.823H37.7888C37.1384 135.823 36.611 135.297 36.611 134.646V103.682C36.611 103.03 37.1384 102.504 37.7888 102.504ZM110.402 104.859H84.0724V133.468H110.402V104.859ZM82.8946 102.504H111.58C112.231 102.504 112.758 103.03 112.758 103.682V134.646C112.758 135.297 112.231 135.823 111.58 135.823H82.8946C82.2435 135.823 81.7169 135.297 81.7169 134.646V103.682C81.7169 103.03 82.2435 102.504 82.8946 102.504ZM155.509 104.859H129.179V133.468H155.509V104.859ZM128.001 102.504H156.686C157.338 102.504 157.864 103.03 157.864 103.682V134.646C157.864 135.297 157.338 135.823 156.686 135.823H128.001C127.35 135.823 126.823 135.297 126.823 134.646V103.682C126.823 103.03 127.35 102.504 128.001 102.504ZM27.6017 151.267C26.9505 151.267 26.4239 150.74 26.4239 150.089C26.4239 149.438 26.9505 148.912 27.6017 148.912H174.629V88.707H19.8466V158.266H174.629V151.267H27.6017ZM109.043 49.968L109.034 49.9586C108.765 50.8684 108.383 51.7297 107.923 52.534C108.2 52.4477 108.45 52.2852 108.641 52.0844C108.976 51.7398 109.186 51.2609 109.186 50.7344C109.186 50.4563 109.139 50.1977 109.043 49.968ZM109.656 44.3863C109.55 44.2711 109.426 44.1559 109.292 44.0699C109.455 44.8453 109.541 45.659 109.541 46.4828C109.541 46.6742 109.531 46.8559 109.522 47.0383C109.627 46.9426 109.713 46.8273 109.799 46.7125C109.991 46.4156 110.106 46.0426 110.106 45.6496C110.106 45.1613 109.934 44.7207 109.656 44.3863ZM108.286 41.1211C108.383 40.9012 108.44 40.6422 108.44 40.3645C108.44 39.9238 108.286 39.5125 108.047 39.1867C107.799 38.8707 107.444 38.6223 107.042 38.5262L106.831 38.45C106.247 38.1723 105.989 37.4637 106.267 36.8793C106.334 36.7453 106.382 36.6109 106.411 36.4773C106.439 36.3531 106.449 36.209 106.449 36.0465C106.449 35.5195 106.247 35.041 105.913 34.6965C105.577 34.3613 105.118 34.1508 104.611 34.1508C104.429 34.1508 104.257 34.1699 104.113 34.218L104.074 34.2273C103.892 34.2844 103.72 34.3711 103.577 34.4762C103.089 34.8211 102.409 34.7445 102.006 34.2848C101.853 34.1031 101.652 33.95 101.432 33.8441C101.24 33.7488 101.01 33.7008 100.761 33.7008L100.416 33.7297C100.311 33.7582 100.196 33.7969 100.091 33.8441L99.9763 33.8828C99.3634 34.0937 98.7028 33.768 98.4923 33.1555C97.9649 31.6617 96.9794 31.566 96.3954 33.0883L96.3282 33.2703C96.0603 33.8543 95.361 34.1129 94.7677 33.8445C94.4517 33.7203 94.4517 33.7301 94.1067 33.7012C93.8868 33.7012 93.6763 33.7395 93.4938 33.8164L93.4267 33.8445C93.2067 33.9504 93.0153 34.0941 92.8618 34.2758C92.4696 34.7352 91.7896 34.8312 91.2919 34.477C91.1481 34.3812 90.9856 34.2949 90.7938 34.2379C90.6407 34.1805 90.4489 34.1516 90.2481 34.1516C89.7505 34.1516 89.281 34.3621 88.9552 34.6973C88.62 35.0418 88.4099 35.5203 88.4099 36.0473C88.4099 36.2098 88.429 36.3441 88.4481 36.459L88.4575 36.4781C88.4767 36.6027 88.5247 36.7273 88.5821 36.8516L88.6677 37.091C88.831 37.7227 88.4478 38.3641 87.8255 38.527C86.9829 38.7375 86.4278 39.5133 86.4278 40.3652C86.4278 40.6242 86.4661 40.8539 86.5423 41.0551L86.5712 41.1219C87.1649 39.9348 87.9407 38.8527 88.8696 37.9238C90.2864 36.5066 92.0579 35.4348 94.0298 34.8602L94.1161 34.841L94.145 34.8312C94.3649 34.7641 94.5954 34.707 94.8251 34.659H94.8442L94.9396 34.6398L95.1411 34.5918H95.17L95.2845 34.5637L95.3997 34.5445H95.438L95.5243 34.525L95.6388 34.5156L95.7349 34.4965H95.754L95.8685 34.477H95.8876L95.9931 34.4578H96.0411L96.1083 34.4484L96.1938 34.4387H96.2228L96.3474 34.4297L96.4618 34.4203L96.5001 34.4109H96.5864L96.6536 34.4016H96.7017L96.8067 34.3922H96.8259H96.9509L96.9603 34.3824H97.0653H97.1227H97.1899H97.2763H97.3052H97.429H97.4771H97.5153H97.5536H97.5919H97.6017H97.6399H97.6774H97.7255H97.7446H97.7638H97.8024H97.8505H97.8888H97.8985L97.9747 34.3922H98.013H98.0513L98.1376 34.4016H98.1759H98.2142H98.2239L98.2622 34.4109H98.3001L98.5497 34.4301L98.597 34.4391C101.47 34.7078 104.064 36 105.989 37.9246L106.056 37.9918C106.956 38.909 107.712 39.9629 108.286 41.1211ZM85.0681 46.7125C85.145 46.8273 85.2407 46.9426 85.336 47.0383C85.3267 46.8559 85.3267 46.6742 85.3267 46.4828C85.3267 45.6594 85.4036 44.8457 85.5657 44.0699C85.4321 44.1559 85.3169 44.2711 85.2122 44.3863C84.9251 44.7207 84.7524 45.1613 84.7524 45.6496C84.7524 46.0426 84.8673 46.4156 85.0681 46.7125ZM86.2169 52.084C86.4184 52.2852 86.6673 52.4477 86.945 52.5336C86.4755 51.7293 86.1024 50.868 85.8251 49.9488L85.8153 49.968C85.729 50.1977 85.6716 50.4473 85.6716 50.734C85.6716 51.2605 85.8817 51.7395 86.2169 52.084ZM102.638 38.3543C102.495 38.6605 102.322 38.9664 102.15 39.2543L101.853 39.7234L101.843 39.7324L101.824 39.7711L101.815 39.7805L101.805 39.7902V39.7992L101.786 39.8187L101.776 39.8281L101.767 39.8473L101.758 39.8664L101.748 39.8758L101.739 39.8852V39.8945L101.72 39.9141L101.71 39.9332L101.7 39.9426L101.643 40.0191L101.634 40.0383L101.624 40.0574L101.577 40.1148L101.568 40.134L101.558 40.1535L101.549 40.1625L101.539 40.1719L101.53 40.1812L101.52 40.2004L101.511 40.2102L101.502 40.2293L101.482 40.2387L101.454 40.2867C102.172 40.8805 102.966 41.3781 103.838 41.7422C104.575 42.0582 105.37 42.2875 106.193 42.4027L106.059 42.125L106.04 42.0867L106.02 42.048L106.001 42.0285V42.0195L105.953 41.9234L105.944 41.9145L105.925 41.8758L105.906 41.8473L105.896 41.8187L105.886 41.8094L105.867 41.7805L105.848 41.7422L105.838 41.723L105.83 41.7035L105.811 41.675L105.791 41.6367L105.782 41.6176L105.772 41.6078L105.629 41.3687L105.609 41.3402L105.6 41.3305L105.59 41.302L105.571 41.2734L105.552 41.2445L105.542 41.2258L105.505 41.1777L105.485 41.1391L105.476 41.1297L105.466 41.1105L105.284 40.8523L105.265 40.8234L105.218 40.7566L105.17 40.6992L105.15 40.6605L105.122 40.632C105.016 40.4977 104.911 40.3637 104.796 40.2301L104.787 40.2207C104.643 40.0484 104.48 39.8758 104.327 39.7133L104.26 39.6559C103.767 39.168 103.231 38.7277 102.638 38.3543ZM88.7739 42.2027C89.0708 42.2984 89.3677 42.3852 89.6642 42.4516C90.3345 42.5953 91.0329 42.6719 91.7708 42.6719C93.8481 42.6719 95.7731 42.0211 97.3435 40.9102C97.8888 40.5176 98.3962 40.077 98.8466 39.5887L98.8657 39.5793V39.5699L98.8841 39.5508L98.913 39.5223L98.9321 39.5027L98.9513 39.4836L98.9606 39.4645L98.97 39.4551L98.9892 39.4355L99.0083 39.4074H99.0177L99.0368 39.3883L99.056 39.3594L99.0653 39.35L99.0751 39.3406L99.0942 39.3215L99.1134 39.302V39.2926L99.1325 39.2734L99.1517 39.2449H99.161L99.1708 39.2258L99.1892 39.1973L99.2083 39.1875L99.2181 39.1781L99.2372 39.1496L99.2563 39.1301L99.2755 39.1016L99.2946 39.0824L99.3044 39.073L99.3138 39.0539L99.3329 39.0344L99.3521 39.0059L99.3712 38.9867L99.3903 38.9582V38.9488L99.4095 38.9297L99.4286 38.9102L99.438 38.891L99.4474 38.8816L99.4665 38.8621L99.4849 38.8336L99.4942 38.8145L99.5231 38.7859L99.5325 38.7766V38.7656L99.5517 38.7367L99.5708 38.7082L99.5899 38.6891L99.6091 38.6605L99.6185 38.6512L99.6282 38.6418L99.6474 38.6129L99.6571 38.5938L99.6665 38.5844L99.6759 38.5648L99.7048 38.5266L99.7142 38.5074L99.7333 38.4883L99.7427 38.4691L99.7524 38.4598L99.7716 38.4402L99.7806 38.4117L99.7899 38.4023L99.7997 38.3832L99.8188 38.3637L99.8286 38.3449L99.838 38.3352L99.8571 38.3066L99.8669 38.2781L99.886 38.259L99.9052 38.2301L99.9146 38.2207V38.202L99.9337 38.1824L99.9528 38.1539L99.972 38.125L99.9817 38.1059L99.9911 38.0867L100 38.077L100.02 38.0488L100.029 38.0297V38.0199L100.048 38.0008L100.058 37.9719L100.067 37.9629L100.076 37.9531L100.085 37.934L100.095 37.9148L100.104 37.8957V37.8863L100.124 37.8668L100.133 37.8477L100.142 37.8285L100.161 37.8094L100.171 37.7805L100.19 37.7422L100.209 37.723L100.219 37.7039V37.6945L100.228 37.675L100.247 37.6559L100.257 37.6367V37.627L100.266 37.6078L100.276 37.5891L100.285 37.5695L100.304 37.541L100.314 37.5219L100.323 37.5023L100.333 37.4832L100.342 37.4547L100.352 37.4359H100.361L100.371 37.4164L100.379 37.3973L100.408 37.3297L100.418 37.3012C99.6712 37.0621 98.8856 36.8996 98.072 36.8516H98.0528L98.0048 36.8426H97.9095H97.9001H97.8712H97.8618L97.8329 36.8328H97.8138H97.8044H97.7661H97.7372H97.7181H97.6989H97.67H97.6606H97.6325H97.6227H97.5942H97.5751H97.5657H97.5271H97.4888H97.4696H97.4599H97.4216H97.3263H97.2978H97.2306H97.1731H97.1349H97.0485H97.0399L96.9438 36.8426H96.9247H96.8477L96.7997 36.8516H96.7517H96.6853L96.6563 36.8605L96.5602 36.8703L96.4642 36.8797H96.436L96.3689 36.8891H96.3114L96.2731 36.8988L96.1962 36.9078H96.1771L95.9856 36.9367H95.9567L95.8993 36.9461L95.8329 36.9555L95.804 36.9652L95.7177 36.9742H95.7083L95.622 36.9937L95.5931 37.0027L95.5267 37.0121L95.4786 37.0219L95.4306 37.0309L95.3634 37.0504H95.3442L95.2482 37.0699L95.1626 37.0891L95.1243 37.098C93.3821 37.5195 91.8306 38.4293 90.5954 39.6547C89.8649 40.393 89.2427 41.2551 88.7739 42.2027ZM99.7841 42.0883C99.4591 42.375 99.1239 42.6527 98.7599 42.9016C96.7872 44.2996 94.3743 45.1234 91.7704 45.1234C90.8895 45.1234 89.9993 45.0273 89.1474 44.8363C88.745 44.7496 88.3618 44.6449 87.9794 44.5109C87.845 45.1527 87.7778 45.8125 87.7778 46.4832C87.7778 49.1543 88.8603 51.5676 90.6024 53.3102C92.3544 55.0617 94.7673 56.1441 97.429 56.1441C100.072 56.1441 102.466 55.0813 104.199 53.377L104.256 53.3102C106.008 51.5676 107.09 49.1543 107.09 46.4832C107.09 45.9562 107.042 45.4395 106.966 44.9418C105.52 44.8652 104.141 44.5398 102.877 43.9937C101.747 43.5141 100.703 42.8734 99.7841 42.0883ZM100.713 63.6496V58.1445C99.6696 58.4316 98.5681 58.5941 97.429 58.5941C96.1556 58.5941 94.9208 58.393 93.7618 58.0293V63.9848L97.113 70.773L100.675 63.7168L100.713 63.6496ZM91.5794 64.8562L91.5313 64.7703L91.5024 64.6934L91.4927 64.6742L89.7978 61.0648C87.7778 61.85 86.0161 62.4914 84.5032 63.0371C77.6864 65.5266 76.461 65.9766 76.3552 70.6203C76.3458 71.4055 76.4224 72.1426 76.5946 72.8508C76.7192 73.3488 76.8817 73.8277 77.0833 74.2969H81.5353V71.4535H83.8903V74.2969H96.0118L94.7384 71.6062L91.5794 64.8562ZM102.973 64.3684C102.953 64.4254 102.925 64.4738 102.896 64.5309L98.1567 73.9328L98.0993 74.0195L98.0321 74.1629L97.9563 74.2969H110.575V71.4535H112.931V74.2969H117.201C117.498 73.6555 117.727 72.9855 117.872 72.2766C118.063 71.3668 118.13 70.3906 118.043 69.3469C117.766 65.8902 116.195 65.316 109.982 63.0465C108.459 62.4914 106.688 61.8402 104.648 61.0547L102.973 64.3684ZM153.641 32.8008C151.717 30.8762 149.056 29.6797 146.116 29.6797C143.215 29.6797 140.572 30.8473 138.657 32.7242L138.59 32.8008C136.666 34.7254 135.478 37.3871 135.478 40.3168C135.478 43.2273 136.637 45.8602 138.523 47.7754L138.59 47.8426C140.515 49.7672 143.176 50.9637 146.116 50.9637C149.046 50.9637 151.688 49.7766 153.613 47.8715L153.641 47.852C155.566 45.9184 156.753 43.2562 156.753 40.3168C156.753 37.3871 155.566 34.725 153.641 32.8008ZM147.016 63.5062H152.588L152.416 58.6711L152.301 58.7766L152.292 58.7859L152.283 58.7953L152.196 58.8719H152.186L152.177 58.891L147.016 63.5062ZM139.481 58.882L139.241 63.5062H144.277L139.481 58.882ZM154.752 58.1449L154.972 64.6465C154.992 65.2875 154.484 65.8336 153.833 65.8527H138.006C137.355 65.8527 136.828 65.3258 136.828 64.6844L137.163 58.0875L124.822 63.4684V74.2969H166.978V63.468L154.752 58.1449ZM150.291 57.4266V52.7348C148.979 53.1754 147.572 53.4148 146.116 53.4148C144.527 53.4148 142.995 53.1277 141.587 52.6102V57.6563L145.656 61.5723L150.291 57.4266ZM54.4196 31.2973L54.4103 31.307V31.3262L54.4013 31.3453L54.3821 31.3836L54.3728 31.4027L54.3634 31.4121L54.3536 31.4316L54.3442 31.4508L54.3349 31.4699L54.3251 31.4891V31.4988L54.2771 31.5941L54.2673 31.6039V31.6129L54.2579 31.6227L54.1427 31.8332V31.843C54.0474 32.0246 53.9419 32.2062 53.8364 32.3883L53.5591 32.8191L53.4446 32.9914L53.4353 33.0109L53.4259 33.0301H53.4161L53.2997 33.2031L53.2899 33.2219L53.2806 33.2312L53.2712 33.241L53.2614 33.25L53.2329 33.2887L53.2231 33.3082L53.1759 33.3652L53.1665 33.3844L53.1571 33.4035L53.138 33.4227L53.1286 33.4324V33.4414L53.1095 33.4609L53.1001 33.4805L53.081 33.4895L53.0716 33.509L53.0622 33.5277L53.0524 33.5375L53.0431 33.5465L53.0337 33.566L53.0145 33.5852C53.8282 34.2652 54.738 34.8398 55.7243 35.2512C56.5954 35.625 57.5337 35.8832 58.5204 36.0078C58.0989 35.0504 57.5341 34.1695 56.8638 33.3844L56.8349 33.3559V33.3465L56.7587 33.2699L56.7493 33.2605L56.586 33.0691H56.5767L56.3181 32.8008L56.222 32.7051L56.213 32.6957C55.6739 32.1687 55.0708 31.6996 54.4196 31.2973ZM41.7239 32.3602C41.5806 32.4945 41.4462 32.6187 41.3126 32.7531L41.2646 32.8008L41.1782 32.8871H41.1688C40.3645 33.7102 39.6946 34.6684 39.197 35.7211C39.5513 35.8453 39.9243 35.9508 40.2978 36.0277C41.0353 36.1902 41.8106 36.2766 42.6146 36.2766C44.8841 36.2766 46.981 35.5777 48.6942 34.3805L48.7614 34.3328C49.3454 33.9113 49.9005 33.4328 50.3892 32.9066L50.3985 32.8969L50.4079 32.8875L50.4177 32.8781L50.4657 32.8301L50.4841 32.8016L50.5513 32.7348L50.5704 32.7059H50.5798L50.5896 32.6867L50.6185 32.6578L50.6376 32.6387L50.6567 32.6098L50.6759 32.591L50.6856 32.5719L50.695 32.5625L50.7239 32.5434L50.7622 32.4953L50.7813 32.4652L50.8005 32.4461V32.4371L50.8196 32.4176L50.8485 32.3891V32.3793L50.8677 32.3602L50.8868 32.341L50.906 32.3121L50.9251 32.284L50.9442 32.2648L50.9634 32.2457V32.2359L50.9923 32.207L51.1165 32.0445L51.1259 32.0254L51.145 32.0062L51.1642 31.9777C51.3657 31.7094 51.5567 31.4219 51.7388 31.125C51.9114 30.8383 52.0642 30.5414 52.2181 30.2445C51.4997 30.0051 50.7532 29.8324 49.9774 29.7465H49.9485L49.7958 29.7273H49.786L49.6806 29.7184H49.6423H49.6231L49.6138 29.7086H49.5751H49.5657H49.5376H49.5087L49.4989 29.6992H49.4606H49.4224H49.4032H49.3938H49.3556H49.3458H49.3173L49.2884 29.6898H49.2786H49.2692H49.2028H49.1837H49.1646H49.1263H49.088H49.0688L49.0497 29.6805H49.0114H48.9825H48.9544H48.945H48.9063H48.8681H48.8489H48.8298H48.7915H48.6856H48.6567H48.5712H48.5231L48.4657 29.6898H48.3794H48.3603L48.2552 29.6992H48.2458H48.1497H48.1114L48.045 29.7086H47.9778L47.9396 29.7184L47.8435 29.7273H47.8341C45.5747 29.9379 43.5735 30.7809 41.7927 32.3031L41.7833 32.3121L41.7239 32.3602ZM51.3567 35.3859C50.9735 35.7207 50.5806 36.0367 50.1782 36.3242L50.1021 36.3723C47.9767 37.8562 45.3907 38.7273 42.6142 38.7273C41.6571 38.7273 40.6997 38.6219 39.7708 38.4207C39.3013 38.3152 38.8423 38.1816 38.3919 38.0285C38.2388 38.7656 38.1528 39.5316 38.1528 40.3164C38.1528 43.227 39.311 45.8598 41.1974 47.775L41.2646 47.8422C43.1892 49.7668 45.8509 50.9633 48.7903 50.9633C51.7103 50.9633 54.363 49.7762 56.2868 47.8711L56.3157 47.8516C58.2403 45.918 59.4278 43.2559 59.4278 40.3164C59.4278 39.7133 59.3798 39.1102 59.2743 38.5352C57.6853 38.459 56.163 38.0945 54.7649 37.5012C53.5196 36.975 52.3708 36.257 51.3567 35.3859ZM49.6903 63.5062H55.2536L55.0907 58.6711L54.9856 58.7668L54.9759 58.7762L54.9665 58.7855L54.8704 58.8719H54.861L54.8419 58.891L49.6903 63.5062ZM42.1552 58.882L41.9161 63.5062H46.952L42.1552 58.882ZM57.4173 58.1449L57.6372 64.6465C57.6563 65.2875 57.1485 65.8336 56.5075 65.8527H40.6806C40.0294 65.8527 39.5028 65.3258 39.5028 64.6844L39.838 58.0875L27.4962 63.4684V74.2969H69.6532V63.468L57.4173 58.1449ZM52.9646 57.4266V52.7348C51.6536 53.1754 50.2454 53.4148 48.7903 53.4148C47.2009 53.4148 45.6688 53.1277 44.2614 52.6102V57.6469L48.331 61.5625L52.9646 57.4266ZM16.0735 165.121C15.4224 165.121 14.8958 164.586 14.8958 163.944C14.8958 163.293 15.4224 162.766 16.0735 162.766H136.359C137.001 162.766 137.538 163.293 137.538 163.944C137.538 164.586 137.001 165.121 136.359 165.121H16.0735ZM86.5044 170.321C85.854 170.321 85.3267 169.794 85.3267 169.143C85.3267 168.501 85.854 167.965 86.5044 167.965H169.736C170.388 167.965 170.914 168.501 170.914 169.143C170.914 169.794 170.388 170.321 169.736 170.321H86.5044ZM178.258 170.321C177.607 170.321 177.08 169.794 177.08 169.143C177.08 168.501 177.607 167.965 178.258 167.965H188.666C189.317 167.965 189.844 168.501 189.844 169.143C189.844 169.794 189.317 170.321 188.666 170.321H178.258ZM11.3345 170.206C10.6833 170.206 10.1567 169.679 10.1567 169.028C10.1567 168.377 10.6833 167.85 11.3345 167.85H50.7716C51.4228 167.85 51.9501 168.377 51.9501 169.028C51.9501 169.679 51.4228 170.206 50.7716 170.206H11.3345ZM19.3673 86.3516H175.099L180.24 76.6523H168.195H168.156H123.645H123.616H76.3653H76.3462H70.8595H70.8306H26.3185H26.2802H14.2353L19.3673 86.3516Z" fill="#F40003"/>
</svg>
