<svg width="200" height="200" viewBox="0 0 200 200" fill="none" xmlns="http://www.w3.org/2000/svg">
<g clip-path="url(#clip0_197_2593)">
<path d="M199.269 83.4312L199.184 83.2375L199.231 83.2L198.612 82.0187L165.425 18.8281C164.519 17.1781 161.365 12.3344 155.3 12.3344H44.1217C37.353 12.3344 33.9655 19.0031 33.8904 19.1594L1.2967 81.2187L1.2842 81.2468L1.05295 81.6843C0.506073 82.7656 -0.706427 85.7031 0.496698 88.6031C8.77795 102.047 23.5404 111.066 40.4873 111.066C57.0561 111.066 71.5092 102.425 79.8842 89.4781C81.1654 86.5375 79.3811 82.8531 79.3811 82.8531L48.5436 24.1281L48.2436 23.5594C47.8279 22.6031 47.4592 20.7812 50.7654 20.7812H91.1967C92.3436 20.8187 95.5404 21.3875 95.5404 26.7406V165.859C95.4654 167.237 94.9436 170.028 92.0779 171.797L71.8373 184.316C71.8373 184.316 66.5279 187.666 71.8373 187.666H129.272C133.187 187.666 129.272 184.95 129.272 184.95L108.422 172.187C108.412 172.181 108.412 172.175 108.403 172.169C104.975 170.069 104.334 167.425 104.24 166.091V26.1468C104.24 21.3093 107.709 20.8094 108.928 20.7812H148.462C149.497 20.8 152.65 21.1437 150.665 24.9406L119.706 83.8718C119.706 83.8718 118.737 86.1906 119.828 88.7344C128.119 102.103 142.825 111.066 159.719 111.066C176.64 111.066 191.4 102.084 199.681 88.6719C200.509 86.5093 199.578 84.1094 199.269 83.4312ZM69.3686 81.575L69.3717 81.5781L69.7967 82.3937C70.4529 83.75 71.4436 86.3312 69.3717 86.3312L10.5967 86.325C8.6467 86.325 9.0342 84.5406 9.65607 83.1L10.5873 81.3312L10.5967 81.3156L38.6154 27.9656C38.6154 27.9656 40.0467 25.7531 41.2092 27.9656L69.3686 81.575ZM129.931 82.2219L130.347 81.4312C130.347 81.4281 130.362 81.4 130.362 81.4L157.756 29.2406C157.794 29.1844 159.653 25.6468 161.547 29.25L188.859 81.2468C189.425 82.3656 191.153 86.3375 187.1 86.3375L132.553 86.3281C132.544 86.3281 132.544 86.3281 132.544 86.3281C128.569 86.325 129.287 83.6187 129.931 82.2219Z" fill="#F40003"/>
</g>
<defs>
<clipPath id="clip0_197_2593">
<rect width="200" height="200" fill="white"/>
</clipPath>
</defs>
</svg>
