<svg width="212" height="212" viewBox="0 0 212 212" fill="none" xmlns="http://www.w3.org/2000/svg">
<path d="M106 0.53125C85.1403 0.53125 64.749 6.71689 47.4047 18.3059C30.0605 29.895 16.5423 46.367 8.55963 65.6389C0.576948 84.9108 -1.51169 106.117 2.55785 126.576C6.62738 147.035 16.6723 165.828 31.4224 180.578C46.1725 195.328 64.9652 205.373 85.4241 209.442C105.883 213.512 127.089 211.423 146.361 203.44C165.633 195.458 182.105 181.94 193.694 164.595C205.283 147.251 211.469 126.86 211.469 106C211.443 78.0359 200.323 51.2245 180.549 31.4509C160.776 11.6773 133.964 0.557107 106 0.53125ZM106 191.938C89.0032 191.938 72.3881 186.897 58.2557 177.454C44.1234 168.011 33.1086 154.59 26.6042 138.887C20.0997 123.184 18.3979 105.905 21.7138 89.2344C25.0297 72.5642 33.2145 57.2516 45.2331 45.233C57.2516 33.2144 72.5642 25.0297 89.2345 21.7138C105.905 18.3978 123.184 20.0997 138.887 26.6041C154.59 33.1085 168.012 44.1233 177.454 58.2557C186.897 72.388 191.938 89.0032 191.938 106C191.912 128.784 182.849 150.628 166.738 166.738C150.628 182.849 128.784 191.912 106 191.938ZM106 35.6875C92.0935 35.6875 78.4993 39.8113 66.9365 47.5373C55.3737 55.2633 46.3616 66.2446 41.0398 79.0926C35.718 91.9405 34.3256 106.078 37.0386 119.717C39.7516 133.357 46.4482 145.885 56.2816 155.718C66.115 165.552 78.6435 172.248 92.2828 174.961C105.922 177.674 120.06 176.282 132.907 170.96C145.755 165.639 156.737 156.626 164.463 145.064C172.189 133.501 176.313 119.907 176.313 106C176.287 87.3599 168.87 69.4906 155.69 56.3101C142.509 43.1295 124.64 35.7133 106 35.6875ZM106 137.25C110.854 137.265 115.644 136.142 119.986 133.972C124.328 131.801 128.1 128.642 131 124.75C132.259 123.114 134.107 122.035 136.151 121.743C138.194 121.451 140.271 121.969 141.938 123.188C143.595 124.431 144.691 126.281 144.984 128.333C145.277 130.384 144.743 132.467 143.5 134.125C137.597 141.996 129.367 147.809 119.977 150.743C110.586 153.676 100.51 153.581 91.1769 150.47C81.8435 147.358 73.7256 141.389 67.9731 133.408C62.2205 125.427 59.125 115.838 59.125 106C59.125 96.1618 62.2205 86.5729 67.9731 78.5917C73.7256 70.6105 81.8435 64.6416 91.1769 61.5305C100.51 58.4193 110.586 58.3237 119.977 61.2572C129.367 64.1906 137.597 70.0044 143.5 77.875C144.743 79.5326 145.277 81.6162 144.984 83.6674C144.691 85.7185 143.595 87.5693 141.938 88.8125C140.271 90.0307 138.194 90.5492 136.151 90.2573C134.107 89.9653 132.259 88.8861 131 87.25C127.804 82.9886 123.572 79.6149 118.705 77.4492C113.838 75.2836 108.499 74.3979 103.194 74.8763C97.8884 75.3546 92.7935 77.1812 88.3927 80.1825C83.9919 83.1838 80.4314 87.2602 78.0492 92.0246C75.667 96.789 74.5422 102.083 74.7816 107.405C75.0211 112.726 76.6168 117.898 79.4172 122.429C82.2177 126.96 86.1299 130.7 90.7824 133.294C95.4349 135.888 100.673 137.25 106 137.25Z" fill="#F40003"/>
</svg>
