<svg width="200" height="200" viewBox="0 0 200 200" fill="none" xmlns="http://www.w3.org/2000/svg">
<path d="M162.5 184.375V131.25H112.5V193.75H171.875C166.706 193.75 162.5 189.544 162.5 184.375ZM121.875 143.75H134.375V156.25H121.875V143.75ZM156.25 182.812H118.75V179.688H156.25V182.812ZM156.25 170.312H118.75V167.188H156.25V170.312ZM156.25 157.812H140.625V154.688H156.25V157.812ZM156.25 145.312H140.625V142.188H156.25V145.312Z" fill="#F40003"/>
<path d="M179.688 184.375V164.062H164.062V184.375C164.062 188.688 167.562 192.188 171.875 192.188C176.188 192.188 179.688 188.688 179.688 184.375Z" fill="#F40003"/>
<path d="M101.562 117.169C108.453 117.128 115.172 116.825 121.525 116.278C121.356 110.853 120.663 105.544 119.434 100.525C113.728 100.956 107.722 101.191 101.562 101.225V117.169Z" fill="#F40003"/>
<path d="M101.562 86.8094V98.1031C107.416 98.0688 113.125 97.85 118.584 97.4531C117.272 92.9844 115.55 88.7938 113.437 85.0063C109.956 86.0594 105.903 86.6875 101.562 86.8094Z" fill="#F40003"/>
<path d="M31.25 40.625C31.25 50.9813 39.6438 59.375 50 59.375C60.3562 59.375 68.75 50.9813 68.75 40.625H62.6844L53.3094 21.875H96.875V78.2781C92.6531 78.6063 88.6063 79.5594 84.8406 81.0781C88.8438 82.7469 94.2281 83.7313 100 83.7313C105.772 83.7313 111.156 82.7469 115.159 81.0781C111.394 79.5625 107.347 78.6063 103.125 78.2781V21.875H146.691L137.316 40.625H131.25C131.25 50.9813 139.644 59.375 150 59.375C160.356 59.375 168.75 50.9813 168.75 40.625H162.684L153.309 21.875H156.25V15.625H100H43.75V21.875H46.6906L37.3156 40.625H31.25ZM159.191 40.625H140.809L150 22.2438L159.191 40.625ZM50 22.2438L59.1906 40.625H40.8094L50 22.2438Z" fill="#F40003"/>
<path d="M100 15.625C103.452 15.625 106.25 12.8268 106.25 9.375C106.25 5.92322 103.452 3.125 100 3.125C96.5482 3.125 93.75 5.92322 93.75 9.375C93.75 12.8268 96.5482 15.625 100 15.625Z" fill="#F40003"/>
<path d="M79.0905 135.869C85.2874 136.384 91.8155 136.669 98.4374 136.706V120.297C91.0937 120.253 83.9218 119.922 77.1812 119.309C77.2218 125.003 77.8843 130.581 79.0905 135.869Z" fill="#F40003"/>
<path d="M122.569 100.259C123.766 105.291 124.459 110.584 124.641 115.988C130.253 115.422 135.509 114.659 140.281 113.722C139.609 108.297 137.878 103.209 135.284 98.6625C131.288 99.3063 127.063 99.8563 122.569 100.259Z" fill="#F40003"/>
<path d="M139.469 128.125C140.194 125.113 140.625 121.988 140.625 118.75C140.625 118.113 140.559 117.494 140.528 116.863C135.687 117.797 130.375 118.559 124.712 119.122C124.7 122.163 124.497 125.166 124.15 128.122L139.469 128.125Z" fill="#F40003"/>
<path d="M118.822 82.7656C118.069 83.1813 117.269 83.5781 116.413 83.9375C118.619 87.9875 120.413 92.4469 121.759 97.1937C125.872 96.8344 129.756 96.3437 133.5 95.7844C129.756 90.3344 124.713 85.8563 118.822 82.7656Z" fill="#F40003"/>
<path d="M109.375 139.653C106.794 139.744 104.191 139.812 101.562 139.828V150.688C104.312 150.766 106.928 151.066 109.375 151.531V139.653Z" fill="#F40003"/>
<path d="M59.375 118.75C59.375 124.05 60.4187 129.097 62.2656 133.738C66.475 134.478 71.0312 135.088 75.8281 135.559C74.6906 130.241 74.0625 124.669 74.0469 118.988C68.85 118.441 63.9531 117.728 59.4688 116.863C59.4406 117.494 59.375 118.116 59.375 118.75Z" fill="#F40003"/>
<path d="M59.7188 113.728C64.1406 114.594 68.9813 115.309 74.1281 115.859C74.3188 110.462 75.0156 105.175 76.2187 100.153C72.1875 99.7687 68.3719 99.2625 64.7062 98.6812C62.1187 103.222 60.3875 108.306 59.7188 113.728Z" fill="#F40003"/>
<path d="M81.1783 154.734C81.6346 154.478 82.0814 154.219 82.5814 153.984C80.0283 149.394 77.9971 144.263 76.5689 138.775C72.1002 138.356 67.8283 137.819 63.8252 137.172C67.6533 144.675 73.7252 150.825 81.1783 154.734Z" fill="#F40003"/>
<path d="M98.4376 150.691V139.831C92.1063 139.794 85.8657 139.531 79.897 139.059C81.2751 144.025 83.1501 148.672 85.5001 152.825C89.2032 151.566 93.6532 150.825 98.4376 150.691Z" fill="#F40003"/>
<path d="M98.4376 101.228C91.8532 101.191 85.4376 100.925 79.3501 100.431C78.1157 105.447 77.4157 110.756 77.2407 116.178C83.947 116.794 91.1032 117.125 98.4345 117.169L98.4376 101.228Z" fill="#F40003"/>
<path d="M66.4937 95.7938C69.8968 96.2844 73.3968 96.7188 77.0468 97.0563C78.4374 92.1969 80.2905 87.6375 82.5812 83.5188C82.0843 83.2844 81.6343 83.025 81.178 82.7688C75.2843 85.8563 70.2405 90.3375 66.4937 95.7938Z" fill="#F40003"/>
<path d="M98.4373 86.8094C93.6529 86.675 89.2029 85.9344 85.5029 84.675C83.3217 88.525 81.5529 92.8031 80.2061 97.3688C86.0436 97.825 92.1717 98.0531 98.4404 98.0875L98.4373 86.8094Z" fill="#F40003"/>
<path d="M109.375 131.25C109.375 129.522 110.772 128.125 112.5 128.125H121.012C121.359 125.266 121.556 122.356 121.578 119.409C115.197 119.953 108.462 120.256 101.562 120.297V136.706C104.194 136.691 106.791 136.616 109.375 136.522V131.25Z" fill="#F40003"/>
<path d="M109.375 158.225V154.728C106.494 154.131 103.331 153.772 100 153.772C94.2283 153.772 88.8439 154.756 84.8408 156.425C89.5283 158.309 94.6377 159.375 100 159.375C103.235 159.375 106.363 158.947 109.375 158.225Z" fill="#F40003"/>
</svg>
