<svg width="181" height="181" viewBox="0 0 181 181" fill="none" xmlns="http://www.w3.org/2000/svg">
<path d="M143.891 51.6235C150.803 51.6235 156.406 46.0201 156.406 39.1079C156.406 32.1957 150.803 26.5923 143.891 26.5923C136.978 26.5923 131.375 32.1957 131.375 39.1079C131.375 46.0201 136.978 51.6235 143.891 51.6235Z" fill="#F40003"/>
<path d="M147.828 54.7173C147.547 54.7173 146.281 54.8579 146.281 54.8579C136.437 56.5454 128.844 65.1235 128.844 75.6704C128.844 75.811 128.703 77.3579 128.844 78.061C128.844 87.3423 129.969 96.3423 131.937 104.92C132.5 107.452 134.187 109.702 136.156 111.389V168.905C136.156 173.264 139.531 176.78 144.031 176.78C148.391 176.78 151.906 173.405 151.906 168.905V116.874C151.062 117.014 150.359 117.155 149.516 117.155C146.703 117.155 144.312 115.889 142.766 114.061C141.641 112.514 140.937 110.686 140.937 108.577V73.4204C140.937 72.436 141.5 71.8735 142.484 71.8735C143.469 71.8735 144.031 72.436 144.031 73.4204V108.577C144.031 111.53 146.562 114.061 149.516 114.061C152.469 114.061 155 111.53 155 108.577C155 108.577 155 61.8892 155 61.7485C154.859 57.811 151.766 54.7173 147.828 54.7173Z" fill="#F40003"/>
<path d="M36.4531 51.6235C43.3653 51.6235 48.9688 46.0201 48.9688 39.1079C48.9688 32.1957 43.3653 26.5923 36.4531 26.5923C29.5409 26.5923 23.9375 32.1957 23.9375 39.1079C23.9375 46.0201 29.5409 51.6235 36.4531 51.6235Z" fill="#F40003"/>
<path d="M34.2031 54.8579C34.2031 54.8579 32.9375 54.7173 32.6562 54.7173C28.7188 54.7173 25.625 57.811 25.625 61.7485C25.625 61.8892 25.625 108.577 25.625 108.577C25.625 111.53 28.1562 114.061 31.1094 114.061C34.0625 114.061 36.5938 111.53 36.5938 108.577V73.4204C36.5938 72.436 37.1562 71.8735 38.1406 71.8735C39.125 71.8735 39.6875 72.436 39.6875 73.4204V108.577C39.6875 110.545 38.8438 112.514 37.8594 114.061C36.3125 115.889 33.9219 117.155 31.1094 117.155C30.2656 117.155 29.5625 117.014 28.7188 116.874V168.764C28.7188 173.124 32.0938 176.639 36.5938 176.639C40.9531 176.639 44.4688 173.264 44.4688 168.764V111.249C46.4375 109.702 48.125 107.311 48.6875 104.78C50.6562 96.2017 51.7812 87.061 51.7812 77.9204C51.9219 77.3579 51.7812 75.6704 51.7812 75.5298C51.6406 65.1235 44.0469 56.5454 34.2031 54.8579Z" fill="#F40003"/>
<path d="M111.969 21.3892C111.828 21.3892 111.828 21.3892 111.688 21.3892C111.688 20.8267 111.828 20.4048 111.828 19.8423C111.828 11.2642 104.797 4.23291 96.2188 4.23291C88.3438 4.23291 81.875 10.1392 80.75 17.5923C79.7656 17.311 78.6406 17.0298 77.5156 17.0298C71.6094 17.0298 66.8281 21.811 66.8281 27.7173V27.8579C66.4063 27.7173 65.8438 27.7173 65.4219 27.7173C61.2031 27.7173 57.8281 31.0923 57.8281 35.311C57.8281 39.5298 61.2031 42.9048 65.4219 42.9048C65.4219 42.9048 75.2656 42.9048 85.9531 42.7642L82.7188 53.0298H95.7969L86.7969 69.7642L107.047 46.8423H94.1094L95.7969 42.7642C104.656 42.7642 111.969 42.6235 112.109 42.6235C118.016 42.6235 122.797 37.8423 122.797 31.936C122.797 26.0298 117.875 21.3892 111.969 21.3892Z" fill="#F40003"/>
</svg>
