<svg width="200" height="200" viewBox="0 0 200 200" fill="none" xmlns="http://www.w3.org/2000/svg">
<path d="M186.205 115.43L170.03 81.1402C170.073 80.1148 170.11 79.0895 170.11 78.0578C170.11 34.9488 135.167 0 92.0578 0C48.9426 0 14 34.9488 14 78.0578C14 102.295 25.0414 123.956 42.3813 138.275V165.863C42.3813 168.555 43.9926 170.99 46.4645 172.04L111.113 199.463C113.182 200.342 115.562 200.128 117.436 198.889C119.316 197.644 120.439 195.544 120.439 193.298V169.916C120.439 166.217 123.443 163.208 127.141 163.208H160.253C163.957 163.208 166.961 160.205 166.961 156.506V136.346C166.961 133.777 168.425 131.433 170.739 130.31L183.074 124.323C186.375 122.711 187.773 118.75 186.205 115.43ZM92.6195 144.788C89.2504 144.788 86.3328 142.907 84.8375 140.143H100.395C98.9059 142.908 95.9824 144.788 92.6195 144.788ZM108.379 127.6C108.379 128.79 107.774 129.834 106.865 130.457C107.774 131.079 108.379 132.123 108.379 133.313C108.379 135.224 106.828 136.774 104.918 136.774H80.1559C78.2453 136.774 76.6953 135.223 76.6953 133.313C76.6953 132.123 77.2934 131.079 78.209 130.457C77.2934 129.834 76.6953 128.79 76.6953 127.6C76.6953 126.422 77.2875 125.378 78.1906 124.756C77.2871 124.133 76.6953 123.096 76.6953 121.918C76.6953 120.007 78.2457 118.457 80.1559 118.457H104.918C106.829 118.457 108.379 120.007 108.379 121.918C108.379 123.096 107.78 124.133 106.883 124.756C107.78 125.379 108.379 126.422 108.379 127.6ZM112.633 99.109C106.877 102.924 106.358 105.762 106.358 112.879H78.7094C78.7094 105.762 78.1965 102.924 72.4348 99.109C62.5469 92.5781 56.0285 81.366 56.0285 68.634C56.0285 48.4742 72.3738 32.1289 92.5336 32.1289C112.693 32.1289 129.039 48.4742 129.039 68.634C129.039 81.366 122.52 92.5781 112.633 99.109Z" fill="#F40003"/>
</svg>
