<svg width="250" height="250" viewBox="0 0 250 250" fill="none" xmlns="http://www.w3.org/2000/svg">
<path d="M149.531 163.672V81.5723C149.531 80.8626 149.249 80.182 148.748 79.6802C148.246 79.1784 147.565 78.8965 146.855 78.8965H64.7607C64.0511 78.8965 63.3705 79.1784 62.8687 79.6802C62.3669 80.182 62.085 80.8626 62.085 81.5723V163.672C62.085 164.023 62.1542 164.371 62.2887 164.695C62.4233 165.019 62.6204 165.314 62.869 165.562C63.1175 165.81 63.4125 166.007 63.7371 166.141C64.0617 166.275 64.4096 166.343 64.7607 166.343H146.855C147.207 166.343 147.554 166.275 147.879 166.141C148.204 166.007 148.499 165.81 148.747 165.562C148.996 165.314 149.193 165.019 149.327 164.695C149.462 164.371 149.531 164.023 149.531 163.672ZM134.614 84.2432V106.548C120.083 102.505 112.671 90.3027 109.805 84.2432H134.614ZM67.4316 160.996V84.2432H95.2637V109.897C95.2637 110.61 95.5466 111.293 96.0502 111.796C96.5539 112.3 97.237 112.583 97.9492 112.583C98.6615 112.583 99.3445 112.3 99.8482 111.796C100.352 111.293 100.635 110.61 100.635 109.897V84.2432H103.95C106.353 90.2393 115.366 108.618 136.816 112.529C136.977 112.559 137.141 112.574 137.305 112.573C137.656 112.574 138.004 112.505 138.329 112.371C138.653 112.236 138.948 112.039 139.196 111.791C139.445 111.542 139.641 111.247 139.775 110.922C139.909 110.597 139.977 110.249 139.976 109.897V84.2432H144.199V126.489H110.469C110.108 126.474 109.748 126.532 109.41 126.659C109.072 126.786 108.764 126.981 108.503 127.231C108.243 127.48 108.035 127.78 107.893 128.112C107.752 128.444 107.679 128.802 107.679 129.163C107.679 129.524 107.752 129.881 107.893 130.213C108.035 130.545 108.243 130.845 108.503 131.095C108.764 131.344 109.072 131.539 109.41 131.666C109.748 131.794 110.108 131.851 110.469 131.836H144.185V160.996H67.4316Z" fill="#F40003"/>
<path d="M67.4316 160.996V84.2432H95.2637V109.897C95.2637 110.61 95.5466 111.293 96.0502 111.796C96.5539 112.3 97.237 112.583 97.9492 112.583C98.6615 112.583 99.3445 112.3 99.8482 111.796C100.352 111.293 100.635 110.61 100.635 109.897V84.2432H103.95C106.353 90.2393 115.366 108.618 136.816 112.529C136.977 112.559 137.141 112.574 137.305 112.573C137.656 112.574 138.004 112.505 138.329 112.371C138.653 112.236 138.948 112.039 139.196 111.791C139.445 111.542 139.641 111.247 139.775 110.922C139.909 110.597 139.977 110.249 139.976 109.897V84.2432H144.199V126.489H110.469C110.108 126.474 109.748 126.532 109.41 126.659C109.072 126.786 108.764 126.981 108.503 127.231C108.243 127.48 108.035 127.78 107.893 128.112C107.752 128.444 107.679 128.802 107.679 129.163C107.679 129.524 107.752 129.881 107.893 130.213C108.035 130.545 108.243 130.845 108.503 131.095C108.764 131.344 109.072 131.539 109.41 131.666C109.748 131.794 110.108 131.851 110.469 131.836H144.185V160.996H67.4316Z" fill="#F40003"/>
<path d="M215.112 142.695L218.042 139.277C220.353 136.554 221.487 133.024 221.196 129.464C220.905 125.904 219.212 122.605 216.489 120.293L216.323 120.151C213.956 118.145 210.97 117.016 207.868 116.955C204.765 116.894 201.737 117.904 199.292 119.814V30.3076C199.292 29.5993 199.011 28.9199 198.51 28.419C198.009 27.9181 197.329 27.6367 196.621 27.6367H47.8857C47.1774 27.6367 46.498 27.9181 45.9971 28.419C45.4962 28.9199 45.2148 29.5993 45.2148 30.3076V44.2822H31.4502C30.7418 44.2822 30.0625 44.5636 29.5616 45.0645C29.0607 45.5654 28.7793 46.2448 28.7793 46.9531V219.238C28.7787 219.589 28.8473 219.937 28.9812 220.262C29.1151 220.587 29.3118 220.882 29.5599 221.13C29.8079 221.379 30.1026 221.576 30.427 221.71C30.7513 221.845 31.099 221.914 31.4502 221.914H130.083C130.19 221.914 130.293 221.914 130.396 221.914C130.849 222.232 131.39 222.402 131.943 222.402C132.253 222.402 132.561 222.347 132.852 222.241L153.521 214.751L153.589 214.717L153.784 214.634L153.887 214.58L154.077 214.468L154.16 214.409C154.227 214.363 154.29 214.312 154.351 214.258L154.414 214.204C154.497 214.13 154.573 214.05 154.644 213.965L211.562 146.88C212.649 148.553 213.167 150.531 213.04 152.521C212.913 154.512 212.149 156.408 210.859 157.93L194.565 177.134C194.338 177.401 194.166 177.711 194.059 178.045C193.952 178.38 193.911 178.732 193.94 179.082C193.969 179.431 194.066 179.772 194.227 180.084C194.387 180.396 194.608 180.674 194.875 180.901C195.143 181.128 195.453 181.3 195.787 181.407C196.121 181.514 196.473 181.555 196.823 181.526C197.173 181.497 197.514 181.4 197.826 181.239C198.138 181.079 198.416 180.859 198.643 180.591L214.937 161.392C217.148 158.788 218.376 155.491 218.408 152.075C218.441 148.659 217.274 145.34 215.112 142.695ZM206.924 122.314C207.987 122.224 209.058 122.346 210.074 122.673C211.09 123 212.031 123.525 212.842 124.219L213.008 124.36C214.649 125.755 215.67 127.745 215.845 129.891C216.021 132.038 215.338 134.167 213.945 135.811L209.473 141.113L201.973 149.951L189.419 139.297L201.411 125.171C202.096 124.354 202.935 123.681 203.881 123.191C204.828 122.7 205.862 122.403 206.924 122.314ZM152.31 208.428L139.756 197.754L185.942 143.359L198.491 154.014L152.31 208.428ZM50.5615 32.9834H193.926V125.376C193.918 125.472 193.918 125.568 193.926 125.664L183.574 137.871L182.817 138.76V46.9629C182.82 46.2579 182.544 45.5804 182.049 45.0783C181.554 44.5761 180.881 44.29 180.176 44.2822H50.5615V32.9834ZM129.819 216.548H34.1162V49.6289H177.49V144.673C177.491 144.789 177.499 144.905 177.515 145.02L133.95 196.353C133.879 196.434 133.814 196.521 133.755 196.611L133.716 196.675C133.67 196.747 133.63 196.822 133.594 196.899C133.58 196.92 133.569 196.941 133.56 196.963C133.516 197.055 133.478 197.149 133.447 197.246C133.414 197.352 133.388 197.459 133.369 197.568L129.819 216.548ZM137.769 203.125L147.373 211.279L135.439 215.605L137.769 203.125Z" fill="#F40003"/>
<path d="M50.5615 32.9834H193.926V125.376C193.918 125.472 193.918 125.568 193.926 125.664L183.574 137.871L182.817 138.76V46.9629C182.82 46.2579 182.544 45.5804 182.049 45.0783C181.554 44.5761 180.881 44.29 180.176 44.2822H50.5615V32.9834Z" fill="#F40003"/>
<path d="M206.924 122.314C207.987 122.224 209.058 122.346 210.074 122.673C211.09 123 212.031 123.525 212.842 124.219L213.008 124.36C214.649 125.755 215.67 127.745 215.845 129.891C216.021 132.038 215.338 134.167 213.945 135.811L209.473 141.113L201.973 149.951L189.419 139.297L201.411 125.171C202.096 124.354 202.935 123.681 203.881 123.191C204.828 122.7 205.862 122.403 206.924 122.314Z" fill="#F40003"/>
<path d="M137.769 203.125L147.373 211.279L135.439 215.605L137.769 203.125Z" fill="#F40003"/>
</svg>
