<svg width="298" height="251" viewBox="0 0 298 251" fill="none" xmlns="http://www.w3.org/2000/svg">
<path d="M144.315 6.71401C146.71 3.40505 151.64 3.40505 154.035 6.71401L162.006 17.7253C163.954 20.4161 167.717 21.0122 170.401 19.055L181.412 11.0262C184.715 8.61815 189.406 10.1446 190.658 14.035L194.81 26.9257C195.829 30.0915 199.229 31.8239 202.39 30.788L215.342 26.5426C219.231 25.2678 223.227 28.1754 223.211 32.2682L223.157 45.7617C223.143 49.0941 225.848 51.799 229.18 51.7857L242.782 51.7317C246.882 51.7154 249.79 55.7243 248.502 59.6166L244.272 72.4002C243.223 75.5701 244.964 78.9866 248.145 80.0013L261.057 84.1201C264.968 85.3678 266.499 90.087 264.065 93.3933L256.08 104.24C254.099 106.932 254.699 110.725 257.416 112.673L268.389 120.541C271.727 122.934 271.727 127.899 268.389 130.293L257.416 138.16C254.699 140.109 254.099 143.901 256.081 146.593L264.065 157.44C266.499 160.746 264.968 165.465 261.057 166.713L248.145 170.832C244.964 171.847 243.223 175.263 244.272 178.433L248.502 191.217C249.79 195.109 246.882 199.118 242.782 199.102L229.18 199.047C225.848 199.034 223.143 201.739 223.157 205.071L223.211 218.565C223.227 222.658 219.231 225.565 215.342 224.291L202.39 220.045C199.229 219.009 195.829 220.742 194.81 223.908L190.658 236.798C189.406 240.689 184.715 242.215 181.412 239.807L170.401 231.778C167.717 229.821 163.954 230.417 162.006 233.108L154.035 244.119C151.64 247.428 146.71 247.428 144.315 244.119L136.344 233.108C134.396 230.417 130.632 229.821 127.948 231.778L116.938 239.807C113.635 242.215 108.944 240.689 107.692 236.798L103.54 223.908C102.521 220.742 99.1207 219.009 95.9602 220.045L83.008 224.291C79.1188 225.565 75.1228 222.658 75.1392 218.565L75.1934 205.071C75.2067 201.739 72.502 199.034 69.1696 199.047L55.5678 199.102C51.468 199.118 48.5598 195.109 49.8478 191.217L54.0779 178.433C55.1269 175.263 53.3862 171.847 50.2051 170.832L37.2933 166.713C33.382 165.465 31.8509 160.746 34.2849 157.44L42.2694 146.594C44.2513 143.901 43.6506 140.109 40.9338 138.16L29.9613 130.293C26.6231 127.899 26.6231 122.934 29.9613 120.541L40.9338 112.673C43.6506 110.725 44.2513 106.932 42.2694 104.24L34.2849 93.3933C31.8509 90.087 33.382 85.3678 37.2934 84.1201L50.2051 80.0013C53.3862 78.9866 55.1269 75.5701 54.0779 72.4002L49.8478 59.6166C48.5598 55.7243 51.468 51.7154 55.5678 51.7317L69.1696 51.7857C72.502 51.799 75.2067 49.0941 75.1934 45.7617L75.1392 32.2682C75.1228 28.1754 79.1188 25.2678 83.008 26.5426L95.9602 30.788C99.1206 31.8239 102.521 30.0915 103.54 26.9257L107.692 14.035C108.944 10.1446 113.635 8.61816 116.938 11.0262L127.948 19.0551C130.632 21.0122 134.396 20.4161 136.344 17.7253L144.315 6.71401Z" fill="#F40003"/>
<circle cx="149.771" cy="125.417" r="102.722" fill="white"/>
<path d="M246.521 124.819C246.521 178.583 202.938 222.167 149.174 222.167C95.411 222.167 51.8271 178.583 51.8271 124.819C51.8271 71.056 95.411 27.4722 149.174 27.4722C202.938 27.4722 246.521 71.056 246.521 124.819ZM55.9218 124.819C55.9218 176.321 97.6724 218.072 149.174 218.072C200.676 218.072 242.427 176.321 242.427 124.819C242.427 73.3174 200.676 31.5668 149.174 31.5668C97.6724 31.5668 55.9218 73.3174 55.9218 124.819Z" fill="#F40003"/>
<path d="M116.458 47.3436L123.754 54.7741L133.076 50.1313L128.263 59.3665L135.559 66.7971L125.289 65.0741L120.477 74.3093L118.942 64.0093L108.671 62.2864L117.993 57.6436L116.458 47.3436Z" fill="#F40003"/>
<path d="M82.5475 83.5253L87.9818 87.8457L93.7701 84.0124L91.3405 90.5159L96.7748 94.8363L89.8388 94.5353L87.4092 101.039L85.5522 94.3492L78.6162 94.0481L84.4045 90.2148L82.5475 83.5253Z" fill="#F40003"/>
<path d="M160.943 48.7444L166.378 53.0648L172.166 49.2315L169.736 55.735L175.171 60.0555L168.235 59.7544L165.805 66.2579L163.948 59.5683L157.012 59.2673L162.8 55.434L160.943 48.7444Z" fill="#F40003"/>
<path d="M189.025 188.471L178.616 188.79L175.702 198.787L172.183 188.986L161.774 189.304L170.008 182.929L166.489 173.128L175.097 178.988L183.331 172.613L180.417 182.611L189.025 188.471Z" fill="#F40003"/>
<path d="M213.491 168.734L208.284 164.142L202.308 167.675L205.066 161.304L199.86 156.712L206.771 157.366L209.53 150.995L211.043 157.771L217.954 158.426L211.978 161.959L213.491 168.734Z" fill="#F40003"/>
<path d="M133.422 199.468L128.215 194.876L122.239 198.409L124.997 192.038L119.791 187.446L126.702 188.1L129.461 181.729L130.974 188.505L137.885 189.16L131.909 192.693L133.422 199.468Z" fill="#F40003"/>
<rect y="156.155" width="297.111" height="62.1111" transform="rotate(-23.4938 0 156.155)" fill="white"/>
<path d="M34.4341 188.919L23.3373 162.776L29.3758 160.213L38.222 181.053L50.8881 175.677L53.1387 180.979L34.4341 188.919ZM57.8135 178.995L46.7167 152.852L52.7552 150.289L63.852 176.432L57.8135 178.995ZM81.7669 144.232L73.8137 147.608L82.6599 168.448L76.6214 171.011L67.7752 150.171L59.7853 153.563L57.5346 148.26L79.5163 138.93L81.7669 144.232ZM95.4031 163.039L84.3064 136.897L90.3449 134.333L101.442 160.476L95.4031 163.039ZM119.444 153.051C117.726 153.781 115.97 154.149 114.177 154.157C112.374 154.14 110.646 153.788 108.992 153.099C107.328 152.386 105.82 151.36 104.47 150.021C103.133 148.648 102.038 146.954 101.184 144.942C100.413 143.125 100.025 141.291 100.021 139.438C100.017 137.586 100.349 135.808 101.016 134.106C101.684 132.403 102.663 130.886 103.952 129.557C105.256 128.192 106.829 127.119 108.67 126.338C111.075 125.317 113.417 124.931 115.696 125.18C117.975 125.43 119.926 126.238 121.549 127.606L118.495 132.9C117.416 131.997 116.171 131.453 114.761 131.27C113.375 131.076 112.032 131.255 110.731 131.807C109.749 132.224 108.929 132.818 108.272 133.59C107.628 134.326 107.156 135.193 106.855 136.19C106.568 137.152 106.468 138.179 106.555 139.272C106.643 140.365 106.921 141.463 107.39 142.568C107.869 143.697 108.484 144.668 109.234 145.479C109.984 146.29 110.817 146.922 111.732 147.373C112.638 147.8 113.591 148.033 114.592 148.071C115.618 148.099 116.647 147.894 117.678 147.457C118.93 146.925 119.99 146.113 120.858 145.02C121.741 143.892 122.401 142.512 122.837 140.878L125.369 146.843C124.168 149.815 122.193 151.884 119.444 153.051ZM122.313 140.666L117.232 142.823L115.372 138.441L125.46 134.159L131.259 147.819L126.251 149.945L122.313 140.666ZM132.586 116.403L139.103 113.637L159.184 135.965L152.998 138.591L148.488 133.596L140.351 137.05L140.848 143.749L134.662 146.375L132.586 116.403ZM145.728 129.858L138.405 121.103L139.542 132.483L145.728 129.858ZM172.264 105.818L164.311 109.194L173.157 130.034L167.119 132.598L158.272 111.757L150.282 115.149L148.032 109.847L170.013 100.516L172.264 105.818ZM185.9 124.625L174.804 98.4828L180.842 95.9196L191.939 122.062L185.9 124.625ZM210.325 114.518C208.361 115.352 206.425 115.739 204.517 115.68C202.623 115.586 200.834 115.158 199.149 114.395C197.478 113.598 196.002 112.544 194.721 111.234C193.43 109.899 192.425 108.384 191.707 106.691C190.967 104.948 190.583 103.156 190.554 101.314C190.55 99.4613 190.864 97.6767 191.497 95.9596C192.144 94.2076 193.114 92.637 194.407 91.2479C195.701 89.8588 197.292 88.763 199.182 87.9607C201.122 87.1376 203.038 86.7731 204.932 86.8672C206.84 86.9263 208.63 87.3545 210.301 88.1516C211.996 88.9383 213.49 89.9992 214.781 91.3343C216.061 92.6448 217.05 94.1223 217.748 95.767C218.488 97.5098 218.872 99.3022 218.901 101.144C218.93 102.986 218.621 104.783 217.974 106.535C217.316 108.262 216.346 109.833 215.063 111.247C213.795 112.625 212.215 113.716 210.325 114.518ZM197.887 104.154C198.314 105.161 198.878 106.08 199.579 106.912C200.269 107.72 201.053 108.372 201.93 108.869C202.832 109.355 203.806 109.637 204.853 109.714C205.9 109.792 206.975 109.596 208.08 109.127C209.234 108.637 210.146 107.989 210.818 107.182C211.479 106.351 211.93 105.436 212.172 104.435C212.414 103.434 212.471 102.41 212.345 101.363C212.234 100.281 211.969 99.2485 211.553 98.2666C211.125 97.2602 210.567 96.3531 209.876 95.5453C209.186 94.7376 208.389 94.0906 207.488 93.6042C206.576 93.0933 205.601 92.8116 204.565 92.759C203.529 92.7064 202.471 92.9093 201.391 93.3678C200.237 93.8575 199.324 94.5056 198.653 95.3121C198.006 96.1082 197.549 97.0118 197.283 98.0228C197.031 98.9989 196.961 100.028 197.073 101.11C197.199 102.158 197.47 103.172 197.887 104.154ZM228.289 88.9897L234.634 103.939L228.596 106.502L217.499 80.3596L222.286 78.3278L240.933 88.5766L234.4 73.1858L240.438 70.6226L251.535 96.7649L246.601 98.8592L228.289 88.9897ZM266.215 68.7194C266.089 68.6279 265.754 68.5532 265.208 68.4953C264.651 68.4128 263.979 68.365 263.191 68.3517C262.403 68.3385 261.57 68.3881 260.691 68.5006C259.811 68.6131 258.979 68.8361 258.193 69.1695C257.162 69.6071 256.443 70.1299 256.034 70.7377C255.616 71.321 255.563 71.9809 255.875 72.7173C256.125 73.3064 256.532 73.6842 257.095 73.8508C257.683 74.0069 258.439 74.048 259.364 73.9742C260.278 73.8758 261.397 73.7484 262.721 73.5919C264.578 73.3252 266.255 73.2505 267.754 73.3677C269.242 73.4604 270.513 73.8622 271.568 74.5732C272.648 75.2738 273.531 76.4341 274.219 78.0542C274.844 79.527 275.105 80.8935 275.003 82.1537C274.89 83.3893 274.503 84.5242 273.841 85.5584C273.193 86.5576 272.343 87.4545 271.289 88.2492C270.226 89.0194 269.068 89.6701 267.816 90.2015C266.54 90.7433 265.174 91.178 263.72 91.5056C262.28 91.7983 260.847 91.9719 259.422 92.0265C257.986 92.0565 256.607 91.9467 255.284 91.697L255.7 85.3064C255.851 85.3875 256.269 85.4852 256.955 85.5996C257.63 85.6895 258.439 85.7518 259.381 85.7866C260.336 85.7864 261.363 85.713 262.459 85.5662C263.556 85.4194 264.607 85.1324 265.614 84.7052C266.694 84.2468 267.418 83.7363 267.788 83.1739C268.182 82.601 268.249 82.0077 267.989 81.394C267.707 80.7313 267.206 80.3356 266.485 80.2071C265.789 80.0681 264.9 80.0545 263.817 80.1663C262.759 80.2677 261.539 80.3947 260.155 80.5475C258.351 80.7339 256.791 80.7442 255.475 80.5786C254.184 80.4025 253.093 79.9821 252.202 79.3172C251.336 78.6419 250.622 77.6415 250.059 76.3159C249.278 74.4749 249.051 72.7462 249.378 71.1296C249.72 69.478 250.492 68.0206 251.694 66.7572C252.886 65.4693 254.353 64.4554 256.096 63.7156C257.323 63.1946 258.564 62.8418 259.818 62.6571C261.097 62.4619 262.321 62.3769 263.49 62.4019C264.684 62.4166 265.768 62.4781 266.741 62.5865L266.215 68.7194Z" fill="#F40003"/>
</svg>
