<?xml version="1.0" encoding="UTF-8"?>
<svg id="Layer_2" data-name="Layer 2" xmlns="http://www.w3.org/2000/svg" viewBox="0 0 241.32 44.08">
  <defs>
    <style>
      .cls-1 {
        fill: #6c0716;
      }
    </style>
  </defs>
  <g id="Layer_1-2" data-name="Layer 1">
    <path d="M14.51.1c6.34,0,11.06,1.59,14.14,4.76,3.08,3.17,4.63,7.72,4.63,13.64,0,3.86-.75,7.24-2.26,10.13-1.51,2.89-3.69,5.13-6.57,6.72-2.87,1.6-6.34,2.39-10.42,2.39-.78,0-1.93-.03-3.45-.08-1.53-.06-2.85-.08-3.99-.08-1.24,0-2.46,0-3.67.03-1.2.02-2.18.06-2.92.13v-1.06c1.2-.07,2.12-.21,2.74-.42.62-.21,1.04-.64,1.25-1.28.21-.64.32-1.6.32-2.87V5.74c0-1.31-.11-2.28-.32-2.9-.21-.62-.63-1.05-1.25-1.28-.62-.23-1.53-.36-2.74-.4V.1c.74.03,1.72.08,2.92.13s2.39.06,3.56.03c1.24-.03,2.64-.07,4.2-.11,1.56-.03,2.84-.05,3.83-.05ZM13.19,1.06c-1.63,0-2.69.3-3.19.9-.5.61-.74,1.83-.74,3.67v26.58c0,1.84.26,3.07.77,3.67.51.6,1.59.9,3.22.9,3.86,0,6.86-.7,8.98-2.1,2.13-1.4,3.61-3.44,4.47-6.14.85-2.69,1.28-5.97,1.28-9.83,0-5.95-1.09-10.38-3.27-13.29-2.18-2.91-6.02-4.36-11.51-4.36Z"/>
    <path d="M45.55,4.02l8.14,20.97c.33.84.71,1.41,1.13,1.68.42.28.81.43,1.17.45v.67c-.45-.04-.99-.07-1.63-.08-.64-.01-1.29-.02-1.93-.02-.87,0-1.68,0-2.43.02-.76.01-1.37.04-1.83.08v-.67c1.13-.04,1.86-.24,2.17-.58.31-.34.25-1.08-.2-2.22l-6.2-16.57.53-.43-5.8,15.07c-.47,1.2-.69,2.14-.67,2.82s.28,1.16.77,1.45c.49.29,1.2.45,2.13.47v.67c-.62-.04-1.27-.07-1.95-.08-.68-.01-1.31-.02-1.88-.02s-1.03,0-1.42.02c-.39.01-.75.04-1.08.08v-.67c.45-.11.9-.37,1.37-.78.47-.41.89-1.12,1.27-2.12l7.84-20.21h.53ZM49.62,18.19v.67h-9.94l.33-.67h9.6Z"/>
    <path d="M68,3.71c1.44,0,2.61.22,3.5.65.89.43,1.72.94,2.5,1.52.29.22.51.33.67.33.42,0,.7-.68.83-2.04h.77c-.04.82-.08,1.82-.1,3-.02,1.18-.03,2.74-.03,4.67h-.77c-.16-.93-.34-1.83-.57-2.7s-.59-1.61-1.1-2.23c-.64-.82-1.49-1.46-2.53-1.92s-2.12-.68-3.23-.68-2.12.27-3.02.82c-.9.55-1.67,1.33-2.32,2.35s-1.14,2.25-1.48,3.68c-.35,1.44-.52,3.05-.52,4.85,0,4,.64,6.93,1.93,8.79s3.29,2.78,6,2.78c.8,0,1.49-.12,2.08-.35.59-.23,1.05-.46,1.38-.68.42-.29.69-.56.8-.82.11-.26.17-.59.17-1.01v-3.2c0-.91-.09-1.59-.27-2.04-.18-.44-.51-.74-.98-.9-.48-.16-1.18-.25-2.12-.27v-.67c.4.02.87.04,1.4.05.53.01,1.1.02,1.69.03.59.01,1.13.02,1.62.02.73,0,1.39-.01,1.99-.03.59-.02,1.08-.04,1.48-.07v.67c-.73.05-1.2.22-1.4.53-.2.31-.3,1.09-.3,2.33v6.6h-.67c-.02-.38-.11-.79-.25-1.23-.15-.44-.36-.66-.65-.66-.13,0-.27.03-.4.1-.13.07-.37.22-.7.47-.73.56-1.51,1-2.33,1.32-.82.32-1.78.48-2.87.48-3.45,0-6.13-1.05-8.05-3.15s-2.88-5.01-2.88-8.72c0-2.6.47-4.85,1.4-6.74.93-1.89,2.21-3.35,3.82-4.39,1.61-1.03,3.45-1.55,5.52-1.55Z"/>
    <path d="M89.67,4.02l8.14,20.97c.33.84.71,1.41,1.13,1.68.42.28.81.43,1.17.45v.67c-.45-.04-.99-.07-1.63-.08-.64-.01-1.29-.02-1.93-.02-.87,0-1.68,0-2.43.02-.76.01-1.37.04-1.83.08v-.67c1.13-.04,1.86-.24,2.17-.58.31-.34.25-1.08-.2-2.22l-6.2-16.57.53-.43-5.8,15.07c-.47,1.2-.69,2.14-.67,2.82s.28,1.16.77,1.45c.49.29,1.2.45,2.13.47v.67c-.62-.04-1.27-.07-1.95-.08-.68-.01-1.31-.02-1.88-.02s-1.03,0-1.42.02c-.39.01-.75.04-1.08.08v-.67c.45-.11.9-.37,1.37-.78.47-.41.89-1.12,1.27-2.12l7.84-20.21h.53ZM93.74,18.19v.67h-9.94l.33-.67h9.6Z"/>
    <path d="M154.17,3.34c3.98,0,6.94,1,8.87,2.99,1.93,1.99,2.9,4.84,2.9,8.55,0,2.42-.47,4.54-1.42,6.35-.94,1.81-2.32,3.22-4.12,4.22s-3.98,1.5-6.54,1.5c-.49,0-1.21-.02-2.17-.05-.96-.04-1.79-.05-2.5-.05-.78,0-1.55,0-2.3.02-.76.01-1.37.04-1.83.08v-.67c.76-.04,1.33-.13,1.72-.27.39-.13.65-.4.78-.8.13-.4.2-1,.2-1.8V6.88c0-.82-.07-1.43-.2-1.82-.13-.39-.39-.66-.78-.8-.39-.14-.96-.23-1.72-.25v-.67c.47.02,1.08.05,1.83.08s1.5.04,2.23.02c.78-.02,1.66-.04,2.64-.07.98-.02,1.78-.03,2.4-.03ZM153.33,3.94c-1.02,0-1.69.19-2,.57-.31.38-.47,1.15-.47,2.3v16.67c0,1.16.16,1.92.48,2.3.32.38.99.57,2.02.57,2.42,0,4.3-.44,5.64-1.32,1.33-.88,2.27-2.16,2.8-3.85.53-1.69.8-3.74.8-6.17,0-3.73-.68-6.51-2.05-8.34-1.37-1.82-3.77-2.74-7.22-2.74Z"/>
    <path d="M177.84,3.18l8.14,20.97c.33.84.71,1.41,1.13,1.68.42.28.81.43,1.17.45v.67c-.45-.04-.99-.07-1.63-.08-.64-.01-1.29-.02-1.93-.02-.87,0-1.68,0-2.43.02-.76.01-1.37.04-1.83.08v-.67c1.13-.04,1.86-.24,2.17-.58.31-.34.25-1.08-.2-2.22l-6.2-16.57.53-.43-5.8,15.07c-.47,1.2-.69,2.14-.67,2.82s.28,1.16.77,1.45c.49.29,1.2.45,2.13.47v.67c-.62-.04-1.27-.07-1.95-.08-.68-.01-1.31-.02-1.88-.02s-1.03,0-1.42.02c-.39.01-.75.04-1.08.08v-.67c.45-.11.9-.37,1.37-.78.47-.41.89-1.12,1.27-2.12l7.84-20.21h.53ZM181.91,17.35v.67h-9.94l.33-.67h9.6Z"/>
    <path d="M200.29,2.88c1.44,0,2.61.22,3.5.65.89.43,1.72.94,2.5,1.52.29.22.51.33.67.33.42,0,.7-.68.83-2.04h.77c-.04.82-.08,1.82-.1,3-.02,1.18-.03,2.74-.03,4.67h-.77c-.16-.93-.34-1.83-.57-2.7s-.59-1.61-1.1-2.23c-.64-.82-1.49-1.46-2.53-1.92s-2.12-.68-3.23-.68-2.12.27-3.02.82c-.9.55-1.67,1.33-2.32,2.35s-1.14,2.25-1.48,3.68c-.35,1.44-.52,3.05-.52,4.85,0,4,.64,6.93,1.93,8.79s3.29,2.78,6,2.78c.8,0,1.49-.12,2.08-.35.59-.23,1.05-.46,1.38-.68.42-.29.69-.56.8-.82.11-.26.17-.59.17-1.01v-3.2c0-.91-.09-1.59-.27-2.04-.18-.44-.51-.74-.98-.9-.48-.16-1.18-.25-2.12-.27v-.67c.4.02.87.04,1.4.05.53.01,1.1.02,1.69.03.59.01,1.13.02,1.62.02.73,0,1.39-.01,1.99-.03.59-.02,1.08-.04,1.48-.07v.67c-.73.05-1.2.22-1.4.53-.2.31-.3,1.09-.3,2.33v6.6h-.67c-.02-.38-.11-.79-.25-1.23-.15-.44-.36-.66-.65-.66-.13,0-.27.03-.4.1-.13.07-.37.22-.7.47-.73.56-1.51,1-2.33,1.32-.82.32-1.78.48-2.87.48-3.45,0-6.13-1.05-8.05-3.15s-2.88-5.01-2.88-8.72c0-2.6.47-4.85,1.4-6.74.93-1.89,2.21-3.35,3.82-4.39,1.61-1.03,3.45-1.55,5.52-1.55Z"/>
    <path d="M224.71,0l12.95,33.38c.53,1.34,1.13,2.24,1.8,2.68.67.44,1.29.68,1.86.72v1.06c-.71-.07-1.57-.11-2.6-.13-1.03-.02-2.05-.03-3.08-.03-1.38,0-2.67,0-3.87.03-1.21.02-2.18.06-2.92.13v-1.06c1.81-.07,2.95-.38,3.45-.93.5-.55.39-1.72-.32-3.53l-9.87-26.38.85-.69-9.23,23.99c-.74,1.91-1.1,3.41-1.06,4.49s.44,1.85,1.22,2.31c.78.46,1.91.71,3.39.74v1.06c-.99-.07-2.03-.11-3.1-.13-1.08-.02-2.08-.03-3-.03s-1.64,0-2.25.03c-.62.02-1.19.06-1.73.13v-1.06c.71-.18,1.43-.59,2.18-1.25.74-.65,1.41-1.78,2.01-3.37L223.86,0h.85ZM231.18,22.55v1.06h-15.81l.53-1.06h15.29Z"/>
    <path class="cls-1" d="M134.31,3.49c.92.81,1.38,1.91,1.38,3.28,0,1.07-.29,2-.87,2.78-.58.79-1.35,1.42-2.3,1.88-.85.4-2.49.98-4.94,1.73,1.25.53,2.16,1.3,2.75,2.28.59.99.88,2.12.88,3.38,0,1.38-.41,2.68-1.23,3.9-.82,1.22-2,2.21-3.54,2.95s-3.33,1.12-5.4,1.12c-1.93,0-3.73-.34-5.38-1.02-1.66-.68-2.97-1.65-3.95-2.9-.98-1.26-1.47-2.72-1.47-4.39,0-1.47.36-2.71,1.08-3.72.72-1.01,1.55-1.78,2.48-2.3.93-.52,1.8-.88,2.6-1.08-1.09-.47-1.92-1.09-2.5-1.87-.58-.78-.87-1.59-.87-2.43,0-.73.22-1.42.65-2.05.43-.63,1.08-1.14,1.93-1.53.86-.39,1.87-.58,3.05-.58,1.49,0,2.65.33,3.47,1,.4.33.71.71.92,1.12.21.41.32.81.32,1.18,0,.53-.19.96-.57,1.28-.38.32-.81.48-1.3.48s-.87-.15-1.22-.45c-.34-.3-.52-.71-.52-1.22s.17-.91.5-1.25c.33-.34.76-.54,1.27-.58-.11-.29-.4-.54-.85-.75-.46-.21-1.02-.32-1.68-.32-1.16,0-2.09.35-2.8,1.05-.71.7-1.07,1.67-1.07,2.92,0,1.49.57,2.76,1.7,3.8.78-.13,1.47-.2,2.07-.2.4,0,.72.07.97.2.24.13.37.32.37.57,0,.2-.08.36-.25.47-.17.11-.4.17-.68.17-.36,0-.72-.07-1.1-.2-.38-.13-.82-.31-1.33-.53-2.89.87-4.33,2.69-4.33,5.47,0,1.49.39,2.78,1.17,3.87.78,1.09,1.85,1.92,3.2,2.48,1.35.57,2.88.85,4.57.85,1.58,0,3.04-.25,4.39-.75,1.34-.5,2.41-1.21,3.2-2.13.79-.92,1.18-2,1.18-3.22,0-.89-.23-1.79-.7-2.7s-1.36-1.62-2.67-2.13c-1.73.53-3.01.96-3.83,1.27-.93.36-1.66.76-2.17,1.22-.51.46-.77,1.02-.77,1.68,0,.8.33,1.45.98,1.93.66.49,1.35.73,2.08.73.38,0,.79-.07,1.23-.2.44-.13.7-.31.77-.53-.42-.09-.79-.27-1.1-.53-.31-.27-.47-.66-.47-1.17s.17-.96.52-1.27c.34-.31.78-.47,1.32-.47s.96.17,1.28.5.48.77.48,1.3c0,.89-.41,1.59-1.23,2.1-.82.51-1.73.77-2.73.77-1.09,0-2.05-.33-2.88-.98-.83-.66-1.25-1.63-1.25-2.92,0-1.13.38-2.1,1.15-2.88.77-.79,1.92-1.45,3.45-1.98l2.37-.7c1.33-.38,2.44-.71,3.33-1,.89-.29,1.7-.6,2.43-.93,1.07-.49,1.81-.99,2.23-1.5.42-.51.63-1.08.63-1.7,0-.93-.38-1.73-1.15-2.38-.77-.66-1.67-.98-2.72-.98-.56,0-.89.1-1,.3.29.13.52.35.68.65.17.3.25.59.25.88,0,.47-.18.86-.55,1.17-.37.31-.81.47-1.32.47-.47,0-.88-.14-1.23-.43-.36-.29-.53-.7-.53-1.23,0-.8.37-1.38,1.12-1.75.75-.37,1.59-.55,2.55-.55,1.4,0,2.56.41,3.49,1.22Z"/>
    <g>
      <path d="M57.28,36.52c-.21.01-.36.03-.45.07-.09.03-.16.1-.19.2-.03.1-.05.26-.05.48v4.28c0,.22.02.38.05.47.03.1.1.16.19.2.1.03.25.06.45.07v.17c-.26-.02-.63-.03-1.1-.03-.49,0-.86,0-1.1.03v-.17c.21-.01.36-.03.45-.07.1-.03.16-.1.19-.2.03-.1.05-.26.05-.47v-4.28c0-.22-.02-.38-.05-.48-.03-.1-.1-.16-.19-.2-.09-.03-.25-.06-.45-.07v-.17c.24.02.61.03,1.1.03.46,0,.83,0,1.1-.03v.17Z"/>
      <path d="M62.14,38.22c.11.12.19.26.23.43.05.17.07.41.07.7v2.3c0,.24.05.4.15.49s.27.13.51.13v.18c-.53-.02-.87-.03-1.04-.03s-.48.01-.97.03v-.18c.21,0,.36-.04.44-.13s.12-.25.12-.49v-2.49c0-.32-.05-.57-.14-.74-.09-.17-.28-.25-.56-.25-.24,0-.45.07-.63.21-.18.14-.33.33-.43.57-.1.24-.15.5-.15.8v1.92c0,.24.04.4.13.49.08.09.23.13.44.13v.18c-.48-.02-.81-.03-.97-.03s-.51.01-1.04.03v-.18c.24,0,.41-.04.51-.13s.15-.25.15-.49v-2.7c0-.26-.05-.46-.15-.58-.1-.12-.27-.18-.51-.18v-.18c.18.02.36.03.53.03.36,0,.66-.04.9-.12v1.02c.14-.37.34-.63.6-.8.26-.16.54-.25.87-.25.4,0,.71.11.91.33Z"/>
      <path d="M65.3,38.02h1.28v.17h-1.28v3.34c0,.26.05.45.14.56.09.12.23.17.41.17s.33-.07.46-.22c.13-.14.23-.38.32-.71l.17.04c-.14.79-.52,1.19-1.12,1.19-.2,0-.36-.02-.48-.07s-.24-.12-.34-.22c-.13-.13-.21-.28-.26-.47-.05-.18-.07-.43-.07-.74v-2.89h-.83v-.17h.83v-1.32c.32-.01.58-.05.78-.12v1.44Z"/>
      <path d="M71.14,41.42c-.1.32-.3.59-.58.82-.28.23-.63.34-1.03.34s-.76-.09-1.06-.28-.53-.45-.69-.79c-.16-.34-.24-.73-.24-1.17,0-.5.08-.94.24-1.3s.39-.65.68-.85c.29-.2.64-.3,1.03-.3.52,0,.92.16,1.2.47.28.31.42.79.42,1.43h-2.7c-.02.16-.03.35-.03.55,0,.38.06.71.19.99.12.28.29.5.49.65.2.15.42.23.64.23.28,0,.52-.07.73-.2.21-.13.39-.35.53-.66l.17.07ZM68.76,38.45c-.2.27-.32.66-.36,1.17h1.88c.01-.45-.05-.82-.19-1.12-.14-.3-.35-.45-.63-.45s-.5.13-.7.4Z"/>
      <path d="M73.57,41.65c0,.24.05.4.15.49s.27.13.51.13v.18c-.53-.02-.88-.03-1.04-.03s-.51.01-1.04.03v-.18c.24,0,.41-.04.51-.13.1-.09.15-.25.15-.49v-4.93c0-.26-.05-.46-.15-.58-.1-.12-.27-.18-.51-.18v-.18c.18.02.36.03.54.03.36,0,.66-.04.9-.12v5.96Z"/>
      <path d="M76.47,41.65c0,.24.05.4.15.49s.27.13.51.13v.18c-.53-.02-.88-.03-1.04-.03s-.51.01-1.04.03v-.18c.24,0,.41-.04.51-.13.1-.09.15-.25.15-.49v-4.93c0-.26-.05-.46-.15-.58-.1-.12-.27-.18-.51-.18v-.18c.18.02.36.03.54.03.36,0,.66-.04.9-.12v5.96Z"/>
      <path d="M81.65,41.42c-.1.32-.3.59-.58.82-.28.23-.63.34-1.03.34s-.76-.09-1.06-.28-.53-.45-.69-.79c-.16-.34-.24-.73-.24-1.17,0-.5.08-.94.24-1.3s.39-.65.68-.85c.29-.2.64-.3,1.03-.3.52,0,.92.16,1.2.47.28.31.42.79.42,1.43h-2.7c-.02.16-.03.35-.03.55,0,.38.06.71.19.99.12.28.29.5.49.65.2.15.42.23.64.23.28,0,.52-.07.73-.2.21-.13.39-.35.53-.66l.17.07ZM79.27,38.45c-.2.27-.32.66-.36,1.17h1.88c.01-.45-.05-.82-.19-1.12-.14-.3-.35-.45-.63-.45s-.5.13-.7.4Z"/>
      <path d="M85.86,38.17c.27.18.41.4.41.66,0,.15-.04.27-.13.35-.09.09-.2.13-.33.13s-.24-.04-.34-.12c-.09-.08-.14-.18-.14-.31,0-.12.03-.22.1-.31s.16-.14.26-.17c-.06-.1-.16-.19-.31-.26-.15-.07-.3-.1-.47-.1-.21,0-.41.07-.6.2s-.34.36-.46.67c-.12.31-.18.73-.18,1.24,0,.71.12,1.23.35,1.56s.53.49.9.49c.25,0,.48-.07.7-.22.22-.14.4-.37.55-.67l.16.06c-.1.33-.28.61-.55.85-.27.24-.61.35-1.04.35-.36,0-.68-.09-.97-.28-.29-.18-.52-.45-.69-.8-.17-.35-.25-.75-.25-1.21s.08-.88.25-1.24c.17-.36.41-.65.71-.85.31-.2.65-.31,1.04-.31s.72.09,1,.28Z"/>
      <path d="M88.72,38.02h1.28v.17h-1.28v3.34c0,.26.05.45.14.56.09.12.23.17.41.17s.33-.07.46-.22c.13-.14.23-.38.32-.71l.17.04c-.14.79-.52,1.19-1.12,1.19-.2,0-.36-.02-.48-.07s-.24-.12-.34-.22c-.13-.13-.21-.28-.26-.47-.05-.18-.07-.43-.07-.74v-2.89h-.83v-.17h.83v-1.32c.32-.01.58-.05.78-.12v1.44Z"/>
      <path d="M94.73,41.52c0,.26.05.46.15.58.1.12.27.18.51.18v.18c-.18-.02-.36-.03-.53-.03-.36,0-.66.04-.9.12v-1.02c-.14.36-.33.62-.59.79-.25.17-.53.25-.83.25-.39,0-.69-.11-.9-.33-.1-.12-.18-.26-.22-.44-.04-.18-.06-.41-.06-.69v-2.17c0-.26-.05-.46-.15-.58-.1-.12-.27-.18-.51-.18v-.18c.18.02.36.03.54.03.36,0,.66-.04.9-.12v3.39c0,.22.01.4.04.53.03.14.09.25.18.33.1.09.24.13.44.13.22,0,.42-.07.6-.21.18-.14.32-.33.42-.57s.15-.5.15-.79v-1.79c0-.26-.05-.46-.15-.58-.1-.12-.27-.18-.51-.18v-.18c.18.02.36.03.53.03.36,0,.66-.04.9-.12v3.61Z"/>
      <path d="M96.61,42.24c-.18-.18-.26-.43-.26-.75,0-.26.07-.47.21-.64s.31-.3.5-.4.45-.2.76-.31c.32-.11.56-.21.72-.3.16-.09.23-.22.23-.37v-.54c0-.33-.07-.56-.21-.69-.14-.12-.34-.19-.59-.19-.4,0-.69.1-.85.31.12.03.21.09.29.18.08.09.12.21.12.35s-.05.26-.14.34c-.09.08-.21.12-.35.12-.16,0-.28-.05-.36-.15s-.12-.22-.12-.37.03-.25.1-.34c.07-.09.17-.18.3-.28.14-.1.31-.18.53-.24.21-.06.45-.09.7-.09.45,0,.79.11,1.02.32.14.13.24.29.29.48s.07.43.07.74v2.4c0,.14.02.25.06.31.04.06.11.09.21.09.07,0,.13-.02.19-.05.06-.03.12-.08.19-.13l.1.15c-.15.12-.28.2-.38.25-.11.05-.24.07-.4.07-.28,0-.47-.07-.58-.21-.11-.14-.16-.33-.16-.56-.17.29-.37.49-.6.6-.22.11-.48.17-.76.17-.36,0-.63-.09-.81-.27ZM98.77,41.51v-1.69c-.05.08-.12.15-.22.2-.09.05-.23.12-.42.21-.22.09-.4.18-.53.26-.14.08-.25.2-.35.34-.1.14-.15.33-.15.55,0,.26.06.45.19.59s.29.2.5.2c.38,0,.71-.22.98-.66Z"/>
      <path d="M102.36,41.65c0,.24.05.4.15.49s.27.13.51.13v.18c-.53-.02-.88-.03-1.04-.03s-.51.01-1.04.03v-.18c.24,0,.41-.04.51-.13.1-.09.15-.25.15-.49v-4.93c0-.26-.05-.46-.15-.58-.1-.12-.27-.18-.51-.18v-.18c.18.02.36.03.54.03.36,0,.66-.04.9-.12v5.96Z"/>
      <path d="M108.08,39.99v1.55c0,.22.02.38.07.47.05.1.13.16.24.2.11.03.3.06.56.07v.17c-.3-.02-.72-.03-1.27-.03-.49,0-.86,0-1.1.03v-.17c.21-.01.36-.03.45-.07.1-.03.16-.1.19-.2.03-.1.05-.26.05-.47v-4.28c0-.22-.02-.38-.05-.48-.03-.1-.1-.16-.19-.2-.09-.03-.25-.06-.45-.07v-.17c.24.02.59.03,1.05.03h.93c.11-.01.23-.02.37-.02.67,0,1.19.15,1.54.46.36.31.53.72.53,1.24,0,.32-.07.62-.21.91-.14.29-.38.53-.72.73-.34.2-.78.29-1.34.29h-.66ZM108.32,36.58c-.09.04-.15.11-.19.22-.03.1-.05.26-.05.47v2.55h.58c.56,0,.95-.15,1.17-.45.22-.3.32-.71.32-1.21,0-.56-.11-.97-.33-1.23-.22-.26-.59-.4-1.1-.4-.18,0-.31.02-.4.06Z"/>
      <path d="M115.2,38.09c.15.13.22.29.22.48,0,.15-.04.28-.13.38-.09.11-.21.16-.36.16-.13,0-.23-.04-.32-.12s-.13-.19-.13-.33c0-.19.1-.35.29-.47-.04-.06-.1-.09-.18-.09-.22,0-.43.09-.61.26-.18.18-.33.39-.43.64-.1.25-.16.49-.16.72v1.83c0,.26.08.45.23.55.15.1.38.16.69.16v.18h-.21c-.59-.03-.96-.03-1.12-.03-.15,0-.49.01-1.02.03v-.18c.24,0,.41-.04.51-.13s.15-.25.15-.49v-2.7c0-.26-.05-.46-.15-.58-.1-.12-.27-.18-.51-.18v-.18c.18.02.36.03.53.03.36,0,.66-.04.9-.12v1.08c.1-.29.27-.54.5-.77.23-.22.48-.34.75-.34.23,0,.42.07.57.2Z"/>
      <path d="M119.58,38.47c.36.39.54.98.54,1.76s-.18,1.38-.54,1.76c-.36.39-.83.58-1.42.58s-1.06-.19-1.42-.58c-.36-.39-.54-.97-.54-1.76s.18-1.38.54-1.76c.36-.39.83-.58,1.42-.58s1.06.19,1.42.58ZM117.34,38.59c-.2.35-.3.9-.3,1.64s.1,1.29.3,1.64.47.53.82.53.62-.18.82-.53.3-.9.3-1.64-.1-1.29-.3-1.64-.47-.53-.82-.53-.62.18-.82.53Z"/>
      <path d="M124.79,38.14c.24.17.44.41.57.73.14.32.21.71.21,1.16s-.07.86-.21,1.24c-.14.39-.36.7-.66.94-.3.24-.67.36-1.11.36-.22,0-.42-.04-.6-.13-.18-.09-.32-.2-.41-.34v1.1c0,.24.07.4.21.49.14.09.35.13.62.13v.18h-.2c-.54-.03-.88-.03-1.04-.03-.14,0-.45.01-.93.03v-.18c.21,0,.36-.04.44-.12.08-.08.12-.22.12-.42v-4.35c0-.26-.05-.46-.15-.58-.1-.12-.27-.18-.51-.18v-.18c.18.02.36.03.54.03.36,0,.66-.04.9-.12v.91c.13-.3.31-.53.55-.69.24-.16.52-.25.83-.25s.58.08.82.25ZM124.73,40.15c0-1.33-.33-2-1-2-.26,0-.49.09-.7.28-.21.19-.36.46-.45.81v2.59c.08.17.2.3.35.4s.34.15.56.15c.82,0,1.23-.74,1.23-2.23Z"/>
      <path d="M130.4,41.42c-.1.32-.3.59-.58.82-.29.23-.63.34-1.03.34s-.76-.09-1.06-.28c-.3-.19-.53-.45-.69-.79-.16-.34-.24-.73-.24-1.17,0-.5.08-.94.24-1.3s.39-.65.68-.85c.29-.2.64-.3,1.03-.3.52,0,.92.16,1.2.47s.42.79.42,1.43h-2.7c-.02.16-.03.35-.03.55,0,.38.06.71.19.99.12.28.29.5.49.65s.42.23.64.23c.28,0,.52-.07.73-.2.21-.13.39-.35.53-.66l.17.07ZM128.02,38.45c-.2.27-.32.66-.36,1.17h1.88c.01-.45-.05-.82-.19-1.12-.14-.3-.35-.45-.63-.45s-.5.13-.7.4Z"/>
      <path d="M134.7,38.09c.15.13.22.29.22.48,0,.15-.04.28-.13.38-.09.11-.21.16-.36.16-.13,0-.23-.04-.32-.12-.09-.08-.13-.19-.13-.33,0-.19.1-.35.29-.47-.04-.06-.1-.09-.18-.09-.22,0-.43.09-.61.26-.18.18-.33.39-.43.64-.1.25-.16.49-.16.72v1.83c0,.26.08.45.23.55s.38.16.69.16v.18h-.21c-.59-.03-.96-.03-1.12-.03-.15,0-.49.01-1.02.03v-.18c.24,0,.41-.04.51-.13s.15-.25.15-.49v-2.7c0-.26-.05-.46-.15-.58-.1-.12-.27-.18-.51-.18v-.18c.18.02.36.03.54.03.36,0,.66-.04.9-.12v1.08c.1-.29.27-.54.5-.77.23-.22.48-.34.75-.34.23,0,.42.07.57.2Z"/>
      <path d="M137.11,38.02h1.28v.17h-1.28v3.34c0,.26.05.45.14.56.09.12.23.17.41.17s.33-.07.46-.22c.13-.14.23-.38.32-.71l.17.04c-.14.79-.52,1.19-1.12,1.19-.2,0-.36-.02-.48-.07-.13-.05-.24-.12-.34-.22-.13-.13-.21-.28-.26-.47-.05-.18-.07-.43-.07-.74v-2.89h-.83v-.17h.83v-1.32c.32-.01.58-.05.78-.12v1.44Z"/>
      <path d="M143.22,38.01v.17c-.12.01-.22.06-.31.16-.09.09-.17.24-.25.45l-1.42,3.71-.29.75c-.11.28-.23.48-.37.6-.09.08-.19.14-.31.17-.12.03-.24.05-.36.05-.17,0-.31-.05-.42-.14-.11-.09-.16-.22-.16-.38,0-.14.04-.25.12-.33.08-.08.19-.12.34-.12.13,0,.23.04.32.11.08.07.12.17.12.3,0,.17-.08.3-.23.39.01,0,.03,0,.05,0,.32,0,.56-.22.73-.67l.3-.79-1.56-3.77c-.1-.2-.2-.33-.29-.39-.1-.06-.2-.1-.29-.1v-.18c.25.03.53.05.85.05.29,0,.66-.02,1.12-.05v.18c-.21,0-.36.02-.45.05-.09.03-.14.12-.14.25,0,.12.04.26.1.42l1.04,2.57.96-2.49c.06-.17.09-.3.09-.4,0-.13-.05-.23-.16-.29-.1-.06-.27-.1-.49-.12v-.17c.3.02.55.03.73.03.25,0,.47,0,.66-.03Z"/>
      <path d="M151.29,42.28v.17c-.23-.02-.54-.03-.92-.03-.5,0-.86,0-1.1.03v-.17c.22-.01.38-.04.47-.08.1-.04.14-.12.14-.24,0-.1-.03-.23-.1-.41l-.53-1.42h-2.09l-.35.92c-.12.31-.17.55-.17.71,0,.18.06.31.19.39.12.08.31.12.56.13v.17c-.33-.02-.66-.03-.99-.03-.26,0-.47,0-.65.03v-.17c.29-.07.52-.32.68-.75l2.03-5.23h.14l2.11,5.43c.14.36.34.54.59.55ZM149.18,39.97l-.97-2.58-.98,2.58h1.95Z"/>
      <path d="M153.31,38.02h1.28v.17h-1.28v3.34c0,.26.05.45.14.56s.23.17.41.17.33-.07.46-.22c.13-.14.23-.38.32-.71l.17.04c-.14.79-.52,1.19-1.12,1.19-.2,0-.36-.02-.48-.07-.13-.05-.24-.12-.34-.22-.13-.13-.21-.28-.26-.47s-.07-.43-.07-.74v-2.89h-.83v-.17h.83v-1.32c.32-.01.58-.05.78-.12v1.44Z"/>
      <path d="M156.45,38.02h1.28v.17h-1.28v3.34c0,.26.05.45.14.56.09.12.23.17.41.17s.33-.07.46-.22c.13-.14.23-.38.32-.71l.17.04c-.14.79-.52,1.19-1.12,1.19-.2,0-.36-.02-.48-.07-.13-.05-.24-.12-.34-.22-.13-.13-.21-.28-.26-.47-.05-.18-.07-.43-.07-.74v-2.89h-.83v-.17h.83v-1.32c.32-.01.58-.05.78-.12v1.44Z"/>
      <path d="M162.08,38.47c.36.39.54.98.54,1.76s-.18,1.38-.54,1.76c-.36.39-.83.58-1.42.58s-1.06-.19-1.42-.58c-.36-.39-.54-.97-.54-1.76s.18-1.38.54-1.76c.36-.39.83-.58,1.42-.58s1.06.19,1.42.58ZM159.84,38.59c-.2.35-.3.9-.3,1.64s.1,1.29.3,1.64c.2.35.47.53.82.53s.62-.18.82-.53c.2-.35.3-.9.3-1.64s-.1-1.29-.3-1.64c-.2-.35-.47-.53-.82-.53s-.62.18-.82.53Z"/>
      <path d="M166.96,38.09c.15.13.22.29.22.48,0,.15-.04.28-.13.38-.09.11-.21.16-.36.16-.13,0-.23-.04-.32-.12-.09-.08-.13-.19-.13-.33,0-.19.1-.35.29-.47-.04-.06-.1-.09-.18-.09-.22,0-.43.09-.61.26-.18.18-.33.39-.43.64-.1.25-.16.49-.16.72v1.83c0,.26.08.45.23.55s.38.16.69.16v.18h-.21c-.59-.03-.96-.03-1.12-.03-.15,0-.49.01-1.02.03v-.18c.24,0,.41-.04.51-.13.1-.09.15-.25.15-.49v-2.7c0-.26-.05-.46-.15-.58-.1-.12-.27-.18-.51-.18v-.18c.18.02.36.03.54.03.36,0,.66-.04.9-.12v1.08c.1-.29.27-.54.5-.77.23-.22.48-.34.75-.34.23,0,.42.07.57.2Z"/>
      <path d="M171.8,38.22c.11.12.19.26.23.43.05.17.07.41.07.7v2.3c0,.24.05.4.15.49.1.09.27.13.51.13v.18c-.53-.02-.88-.03-1.04-.03s-.48.01-.97.03v-.18c.21,0,.36-.04.44-.13.08-.09.12-.25.12-.49v-2.49c0-.32-.05-.57-.14-.74-.09-.17-.28-.25-.56-.25-.24,0-.45.07-.63.21-.18.14-.33.33-.43.57s-.15.5-.15.8v1.92c0,.24.04.4.12.49.08.09.23.13.44.13v.18c-.48-.02-.8-.03-.97-.03s-.51.01-1.04.03v-.18c.24,0,.41-.04.51-.13.1-.09.15-.25.15-.49v-2.7c0-.26-.05-.46-.15-.58-.1-.12-.27-.18-.51-.18v-.18c.18.02.36.03.54.03.36,0,.66-.04.9-.12v1.02c.14-.37.34-.63.6-.8.26-.16.54-.25.87-.25.4,0,.71.11.92.33Z"/>
      <path d="M177.31,41.42c-.1.32-.3.59-.58.82-.29.23-.63.34-1.03.34s-.76-.09-1.06-.28-.53-.45-.69-.79c-.16-.34-.24-.73-.24-1.17,0-.5.08-.94.24-1.3s.39-.65.68-.85c.29-.2.64-.3,1.03-.3.52,0,.92.16,1.19.47.28.31.42.79.42,1.43h-2.7c-.02.16-.03.35-.03.55,0,.38.06.71.19.99.12.28.29.5.49.65s.42.23.64.23c.28,0,.52-.07.73-.2s.39-.35.54-.66l.17.07ZM174.93,38.45c-.2.27-.32.66-.36,1.17h1.88c.01-.45-.05-.82-.19-1.12-.14-.3-.35-.45-.63-.45s-.5.13-.7.4Z"/>
      <path d="M182.29,38.01v.17c-.12.01-.22.06-.31.16-.09.09-.17.24-.25.45l-1.42,3.71-.29.75c-.11.28-.23.48-.37.6-.09.08-.19.14-.31.17-.12.03-.24.05-.36.05-.17,0-.31-.05-.42-.14-.11-.09-.16-.22-.16-.38,0-.14.04-.25.12-.33.08-.08.19-.12.34-.12.13,0,.23.04.32.11.08.07.12.17.12.3,0,.17-.08.3-.23.39.01,0,.03,0,.05,0,.32,0,.56-.22.73-.67l.3-.79-1.56-3.77c-.1-.2-.2-.33-.29-.39-.1-.06-.2-.1-.29-.1v-.18c.25.03.53.05.85.05.29,0,.66-.02,1.12-.05v.18c-.21,0-.36.02-.45.05-.1.03-.14.12-.14.25,0,.12.03.26.1.42l1.04,2.57.96-2.49c.06-.17.09-.3.09-.4,0-.13-.05-.23-.16-.29-.1-.06-.27-.1-.49-.12v-.17c.31.02.55.03.73.03.25,0,.47,0,.66-.03Z"/>
      <path d="M185.09,37.98c.16.06.29.14.39.22.06.05.12.07.16.07.1,0,.17-.13.19-.38h.2c-.02.28-.03.77-.03,1.47h-.2c-.06-.38-.19-.69-.37-.94-.18-.25-.45-.37-.81-.37-.21,0-.38.06-.51.18-.13.12-.2.28-.2.49s.07.37.21.5c.14.14.36.3.66.49.05.03.13.08.23.15.26.17.48.33.64.46s.29.28.39.46c.1.17.15.37.15.6,0,.38-.14.68-.43.89-.28.21-.63.32-1.05.32-.26,0-.49-.04-.68-.12-.13-.06-.25-.14-.35-.23-.02-.02-.05-.03-.08-.03-.04,0-.08.03-.11.09-.03.06-.06.14-.07.24h-.2c.02-.33.03-.9.03-1.73h.2c.06.54.18.94.35,1.21s.45.4.85.4c.2,0,.38-.07.54-.2.16-.13.23-.34.23-.62,0-.22-.08-.41-.23-.57-.15-.16-.4-.34-.75-.56-.28-.18-.5-.33-.65-.44-.15-.11-.28-.26-.38-.42-.1-.17-.16-.36-.16-.59,0-.36.12-.64.36-.83.24-.19.55-.28.92-.28.21,0,.39.03.55.09Z"/>
    </g>
  </g>
</svg>