<svg width="298" height="251" viewBox="0 0 298 251" fill="none" xmlns="http://www.w3.org/2000/svg">
<path d="M144.315 6.71401C146.71 3.40505 151.64 3.40505 154.035 6.71401L162.006 17.7253C163.954 20.4161 167.717 21.0122 170.401 19.055L181.412 11.0262C184.715 8.61815 189.406 10.1446 190.658 14.035L194.81 26.9257C195.829 30.0915 199.229 31.8239 202.39 30.788L215.342 26.5426C219.231 25.2678 223.227 28.1754 223.211 32.2682L223.157 45.7617C223.143 49.0941 225.848 51.799 229.18 51.7857L242.782 51.7317C246.882 51.7154 249.79 55.7243 248.502 59.6166L244.272 72.4002C243.223 75.5701 244.964 78.9866 248.145 80.0013L261.057 84.1201C264.968 85.3678 266.499 90.087 264.065 93.3933L256.08 104.24C254.099 106.932 254.699 110.725 257.416 112.673L268.389 120.541C271.727 122.934 271.727 127.899 268.389 130.293L257.416 138.16C254.699 140.109 254.099 143.901 256.081 146.593L264.065 157.44C266.499 160.746 264.968 165.465 261.057 166.713L248.145 170.832C244.964 171.847 243.223 175.263 244.272 178.433L248.502 191.217C249.79 195.109 246.882 199.118 242.782 199.102L229.18 199.047C225.848 199.034 223.143 201.739 223.157 205.071L223.211 218.565C223.227 222.658 219.231 225.565 215.342 224.291L202.39 220.045C199.229 219.009 195.829 220.742 194.81 223.908L190.658 236.798C189.406 240.689 184.715 242.215 181.412 239.807L170.401 231.778C167.717 229.821 163.954 230.417 162.006 233.108L154.035 244.119C151.64 247.428 146.71 247.428 144.315 244.119L136.344 233.108C134.396 230.417 130.632 229.821 127.948 231.778L116.938 239.807C113.635 242.215 108.944 240.689 107.692 236.798L103.54 223.908C102.521 220.742 99.1207 219.009 95.9602 220.045L83.008 224.291C79.1188 225.565 75.1228 222.658 75.1392 218.565L75.1934 205.071C75.2067 201.739 72.502 199.034 69.1696 199.047L55.5678 199.102C51.468 199.118 48.5598 195.109 49.8478 191.217L54.0779 178.433C55.1269 175.263 53.3862 171.847 50.2051 170.832L37.2933 166.713C33.382 165.465 31.8509 160.746 34.2849 157.44L42.2694 146.594C44.2513 143.901 43.6506 140.109 40.9338 138.16L29.9613 130.293C26.6231 127.899 26.6231 122.934 29.9613 120.541L40.9338 112.673C43.6506 110.725 44.2513 106.932 42.2694 104.24L34.2849 93.3933C31.8509 90.087 33.382 85.3678 37.2934 84.1201L50.2051 80.0013C53.3862 78.9866 55.1269 75.5701 54.0779 72.4002L49.8478 59.6166C48.5598 55.7243 51.468 51.7154 55.5678 51.7317L69.1696 51.7857C72.502 51.799 75.2067 49.0941 75.1934 45.7617L75.1392 32.2682C75.1228 28.1754 79.1188 25.2678 83.008 26.5426L95.9602 30.788C99.1206 31.8239 102.521 30.0915 103.54 26.9257L107.692 14.035C108.944 10.1446 113.635 8.61816 116.938 11.0262L127.948 19.0551C130.632 21.0122 134.396 20.4161 136.344 17.7253L144.315 6.71401Z" fill="#F40003"/>
<circle cx="149.771" cy="125.417" r="102.722" fill="white"/>
<path d="M246.521 124.819C246.521 178.583 202.938 222.167 149.174 222.167C95.411 222.167 51.8271 178.583 51.8271 124.819C51.8271 71.056 95.411 27.4722 149.174 27.4722C202.938 27.4722 246.521 71.056 246.521 124.819ZM55.9218 124.819C55.9218 176.321 97.6724 218.072 149.174 218.072C200.676 218.072 242.427 176.321 242.427 124.819C242.427 73.3174 200.676 31.5668 149.174 31.5668C97.6724 31.5668 55.9218 73.3174 55.9218 124.819Z" fill="#F40003"/>
<path d="M116.458 47.3436L123.754 54.7741L133.076 50.1313L128.263 59.3665L135.559 66.7971L125.289 65.0741L120.477 74.3093L118.942 64.0093L108.671 62.2864L117.993 57.6436L116.458 47.3436Z" fill="#F40003"/>
<path d="M82.5475 83.5253L87.9818 87.8457L93.7701 84.0124L91.3405 90.5159L96.7748 94.8363L89.8388 94.5353L87.4092 101.039L85.5522 94.3492L78.6162 94.0481L84.4045 90.2148L82.5475 83.5253Z" fill="#F40003"/>
<path d="M160.943 48.7444L166.378 53.0648L172.166 49.2315L169.736 55.735L175.171 60.0555L168.235 59.7544L165.805 66.2579L163.948 59.5683L157.012 59.2673L162.8 55.434L160.943 48.7444Z" fill="#F40003"/>
<path d="M189.025 188.471L178.616 188.79L175.702 198.787L172.183 188.986L161.774 189.304L170.008 182.929L166.489 173.128L175.097 178.988L183.331 172.613L180.417 182.611L189.025 188.471Z" fill="#F40003"/>
<path d="M213.491 168.734L208.284 164.142L202.308 167.675L205.066 161.304L199.86 156.712L206.771 157.366L209.53 150.995L211.043 157.771L217.954 158.426L211.978 161.959L213.491 168.734Z" fill="#F40003"/>
<path d="M133.422 199.468L128.215 194.876L122.239 198.409L124.997 192.038L119.791 187.446L126.702 188.1L129.461 181.729L130.974 188.505L137.885 189.16L131.909 192.693L133.422 199.468Z" fill="#F40003"/>
<rect y="156.155" width="297.111" height="62.1111" transform="rotate(-23.4938 0 156.155)" fill="white"/>
<path d="M72.0166 173.295L60.9198 147.153L72.0764 142.417C73.3282 141.886 74.5791 141.659 75.8288 141.737C77.0927 141.78 78.2875 142.069 79.4131 142.605C80.5284 143.117 81.5186 143.812 82.384 144.69C83.2493 145.569 83.9164 146.56 84.3853 147.665C85.0209 149.162 85.2693 150.737 85.1305 152.389C85.0163 154.031 84.5155 155.547 83.6283 156.938C82.7553 158.293 81.4718 159.33 79.7781 160.049L74.476 162.3L78.0551 170.732L72.0166 173.295ZM72.241 157.035L77.1749 154.94C77.6413 154.742 78.0136 154.425 78.2917 153.988C78.5699 153.552 78.717 153.011 78.7333 152.367C78.7495 151.723 78.5909 151.008 78.2575 150.222C77.9137 149.412 77.4851 148.812 76.9717 148.422C76.4724 147.996 75.9498 147.755 75.4038 147.697C74.8823 147.628 74.3883 147.693 73.9219 147.891L69.209 149.892L72.241 157.035ZM94.0686 133.082L100.586 130.316L120.667 152.644L114.481 155.27L109.971 150.275L101.833 153.729L102.33 160.428L96.1445 163.053L94.0686 133.082ZM107.211 146.537L99.8877 137.782L101.025 149.162L107.211 146.537ZM137.429 120.934L129.476 124.31L138.322 145.15L132.283 147.713L123.437 126.873L115.447 130.265L113.196 124.963L135.178 115.632L137.429 120.934ZM170.87 125.077L173.12 130.379L154.747 138.178L143.65 112.036L161.692 104.377L163.943 109.68L151.939 114.775L154.096 119.856L164.406 115.48L166.485 120.377L156.175 124.753L158.535 130.313L170.87 125.077ZM182.005 108.965L188.35 123.914L182.312 126.478L171.215 100.335L176.002 98.3034L194.649 108.552L188.115 93.1614L194.154 90.5982L205.251 116.741L200.317 118.835L182.005 108.965ZM226.847 82.9782L218.894 86.3541L227.74 107.194L221.702 109.758L212.855 88.9173L204.865 92.3089L202.615 87.0067L224.597 77.6761L226.847 82.9782Z" fill="#F40003"/>
</svg>
