<svg width="298" height="251" viewBox="0 0 298 251" fill="none" xmlns="http://www.w3.org/2000/svg">
<path d="M144.315 6.71401C146.71 3.40505 151.64 3.40505 154.035 6.71401L162.006 17.7253C163.954 20.4161 167.717 21.0122 170.401 19.055L181.412 11.0262C184.715 8.61815 189.406 10.1446 190.658 14.035L194.81 26.9257C195.829 30.0915 199.229 31.8239 202.39 30.788L215.342 26.5426C219.231 25.2678 223.227 28.1754 223.211 32.2682L223.157 45.7617C223.143 49.0941 225.848 51.799 229.18 51.7857L242.782 51.7317C246.882 51.7154 249.79 55.7243 248.502 59.6166L244.272 72.4002C243.223 75.5701 244.964 78.9866 248.145 80.0013L261.057 84.1201C264.968 85.3678 266.499 90.087 264.065 93.3933L256.08 104.24C254.099 106.932 254.699 110.725 257.416 112.673L268.389 120.541C271.727 122.934 271.727 127.899 268.389 130.293L257.416 138.16C254.699 140.109 254.099 143.901 256.081 146.593L264.065 157.44C266.499 160.746 264.968 165.465 261.057 166.713L248.145 170.832C244.964 171.847 243.223 175.263 244.272 178.433L248.502 191.217C249.79 195.109 246.882 199.118 242.782 199.102L229.18 199.047C225.848 199.034 223.143 201.739 223.157 205.071L223.211 218.565C223.227 222.658 219.231 225.565 215.342 224.291L202.39 220.045C199.229 219.009 195.829 220.742 194.81 223.908L190.658 236.798C189.406 240.689 184.715 242.215 181.412 239.807L170.401 231.778C167.717 229.821 163.954 230.417 162.006 233.108L154.035 244.119C151.64 247.428 146.71 247.428 144.315 244.119L136.344 233.108C134.396 230.417 130.632 229.821 127.948 231.778L116.938 239.807C113.635 242.215 108.944 240.689 107.692 236.798L103.54 223.908C102.521 220.742 99.1207 219.009 95.9602 220.045L83.008 224.291C79.1188 225.565 75.1228 222.658 75.1392 218.565L75.1934 205.071C75.2067 201.739 72.502 199.034 69.1696 199.047L55.5678 199.102C51.468 199.118 48.5598 195.109 49.8478 191.217L54.0779 178.433C55.1269 175.263 53.3862 171.847 50.2051 170.832L37.2933 166.713C33.382 165.465 31.8509 160.746 34.2849 157.44L42.2694 146.594C44.2513 143.901 43.6506 140.109 40.9338 138.16L29.9613 130.293C26.6231 127.899 26.6231 122.934 29.9613 120.541L40.9338 112.673C43.6506 110.725 44.2513 106.932 42.2694 104.24L34.2849 93.3933C31.8509 90.087 33.382 85.3678 37.2934 84.1201L50.2051 80.0013C53.3862 78.9866 55.1269 75.5701 54.0779 72.4002L49.8478 59.6166C48.5598 55.7243 51.468 51.7154 55.5678 51.7317L69.1696 51.7857C72.502 51.799 75.2067 49.0941 75.1934 45.7617L75.1392 32.2682C75.1228 28.1754 79.1188 25.2678 83.008 26.5426L95.9602 30.788C99.1206 31.8239 102.521 30.0915 103.54 26.9257L107.692 14.035C108.944 10.1446 113.635 8.61816 116.938 11.0262L127.948 19.0551C130.632 21.0122 134.396 20.4161 136.344 17.7253L144.315 6.71401Z" fill="#F40003"/>
<circle cx="149.771" cy="125.417" r="102.722" fill="white"/>
<path d="M246.521 124.819C246.521 178.583 202.938 222.167 149.174 222.167C95.411 222.167 51.8271 178.583 51.8271 124.819C51.8271 71.056 95.411 27.4722 149.174 27.4722C202.938 27.4722 246.521 71.056 246.521 124.819ZM55.9218 124.819C55.9218 176.321 97.6724 218.072 149.174 218.072C200.676 218.072 242.427 176.321 242.427 124.819C242.427 73.3174 200.676 31.5668 149.174 31.5668C97.6724 31.5668 55.9218 73.3174 55.9218 124.819Z" fill="#F40003"/>
<path d="M116.458 47.3436L123.754 54.7741L133.076 50.1313L128.263 59.3665L135.559 66.7971L125.289 65.0741L120.477 74.3093L118.942 64.0093L108.671 62.2864L117.993 57.6436L116.458 47.3436Z" fill="#F40003"/>
<path d="M82.5475 83.5253L87.9818 87.8457L93.7701 84.0124L91.3405 90.5159L96.7748 94.8363L89.8388 94.5353L87.4092 101.039L85.5522 94.3492L78.6162 94.0481L84.4045 90.2148L82.5475 83.5253Z" fill="#F40003"/>
<path d="M160.943 48.7444L166.378 53.0648L172.166 49.2315L169.736 55.735L175.171 60.0555L168.235 59.7544L165.805 66.2579L163.948 59.5683L157.012 59.2673L162.8 55.434L160.943 48.7444Z" fill="#F40003"/>
<path d="M189.025 188.471L178.616 188.79L175.702 198.787L172.183 188.986L161.774 189.304L170.008 182.929L166.489 173.128L175.097 178.988L183.331 172.613L180.417 182.611L189.025 188.471Z" fill="#F40003"/>
<path d="M213.491 168.734L208.284 164.142L202.308 167.675L205.066 161.304L199.86 156.712L206.771 157.366L209.53 150.995L211.043 157.771L217.954 158.426L211.978 161.959L213.491 168.734Z" fill="#F40003"/>
<path d="M133.422 199.468L128.215 194.876L122.239 198.409L124.997 192.038L119.791 187.446L126.702 188.1L129.461 181.729L130.974 188.505L137.885 189.16L131.909 192.693L133.422 199.468Z" fill="#F40003"/>
<rect y="156.155" width="297.111" height="62.1111" transform="rotate(-23.4938 0 156.155)" fill="white"/>
<path d="M45.5076 159.623L37.5545 162.999L46.4006 183.839L40.3621 186.402L31.516 165.562L23.526 168.954L21.2754 163.652L43.257 154.321L45.5076 159.623ZM59.1439 178.43L48.0471 152.288L59.8296 147.286C61.0569 146.765 62.2955 146.544 63.5452 146.622C64.8092 146.665 66.0039 146.954 67.1296 147.49C68.2448 148.002 69.235 148.697 70.1004 149.575C70.9903 150.443 71.6644 151.417 72.1229 152.497C72.5813 153.577 72.8471 154.681 72.9203 155.809C72.983 156.912 72.8619 157.992 72.5571 159.048C72.2419 160.08 71.7467 161.029 71.0714 161.895L80.9414 169.178L74.277 172.006L65.6903 165.7L61.6033 167.435L65.1824 175.867L59.1439 178.43ZM59.3683 162.17L64.8913 159.825C65.3823 159.617 65.7493 159.287 65.9925 158.836C66.2498 158.351 66.3866 157.786 66.4028 157.141C66.419 156.497 66.2761 155.819 65.9739 155.107C65.6717 154.395 65.264 153.844 64.7506 153.454C64.2514 153.028 63.7306 152.757 63.1882 152.64C62.6459 152.522 62.1416 152.562 61.6752 152.76L56.3362 155.027L59.3683 162.17ZM81.1456 138.238L87.6628 135.472L107.744 157.801L101.558 160.426L97.0477 155.432L88.9104 158.886L89.4072 165.584L83.2214 168.21L81.1456 138.238ZM94.2875 151.693L86.9646 142.938L88.1017 154.319L94.2875 151.693ZM112.159 155.926L101.062 129.784L110.82 125.642C113.692 124.423 116.335 123.996 118.75 124.362C121.179 124.692 123.306 125.644 125.132 127.215C126.948 128.762 128.366 130.738 129.387 133.144C130.512 135.795 130.952 138.332 130.705 140.754C130.459 143.176 129.583 145.344 128.077 147.257C126.597 149.161 124.543 150.67 121.917 151.785L112.159 155.926ZM123.238 135.754C122.592 134.232 121.754 133.009 120.724 132.084C119.684 131.135 118.513 130.561 117.211 130.36C115.899 130.135 114.519 130.33 113.07 130.944L109.352 132.523L115.947 148.061L119.666 146.482C121.139 145.857 122.238 145 122.963 143.91C123.702 142.785 124.092 141.519 124.131 140.111C124.161 138.679 123.863 137.227 123.238 135.754ZM156.48 130.856L158.73 136.158L140.357 143.957L129.26 117.815L147.302 110.156L149.553 115.459L137.549 120.554L139.706 125.635L150.016 121.259L152.094 126.156L141.785 130.532L144.145 136.092L156.48 130.856ZM184.859 125.067L178.248 109.492L177.428 123.224L174.114 124.631L163.667 115.681L170.278 131.256L164.24 133.82L153.143 107.677L159.697 104.895L172.27 115.68L173.284 99.128L179.801 96.3616L190.897 122.504L184.859 125.067ZM193.253 90.6514L199.77 87.8851L219.851 110.214L213.665 112.84L209.155 107.845L201.018 111.299L201.515 117.997L195.329 120.623L193.253 90.6514ZM206.395 104.106L199.072 95.3514L200.209 106.732L206.395 104.106ZM224.267 108.34L213.17 82.1972L224.952 77.1959C226.18 76.6749 227.418 76.4534 228.668 76.5312C229.932 76.5741 231.127 76.8636 232.252 77.3998C233.368 77.9113 234.358 78.6063 235.223 79.4847C236.113 80.3527 236.787 81.3267 237.246 82.4067C237.704 83.4868 237.97 84.5907 238.043 85.7184C238.106 86.8216 237.985 87.9014 237.68 88.9579C237.365 89.9897 236.869 90.9387 236.194 91.8047L246.064 99.0871L239.4 101.916L230.813 95.6097L226.726 97.3446L230.305 105.776L224.267 108.34ZM224.491 92.0793L230.014 89.7349C230.505 89.5265 230.872 89.1969 231.115 88.746C231.373 88.2602 231.509 87.6952 231.526 87.0509C231.542 86.4067 231.399 85.7287 231.097 85.0168C230.794 84.305 230.387 83.7538 229.873 83.3634C229.374 82.938 228.853 82.6665 228.311 82.5491C227.769 82.4317 227.264 82.4719 226.798 82.6699L221.459 84.9362L224.491 92.0793ZM250.774 97.0877L239.678 70.9454L245.716 68.3822L250.499 79.6492L255.289 64.3186L262.064 61.4428L257.225 77.2722L273.824 87.3038L266.902 90.2421L255.083 82.8742L253.546 86.8291L256.813 94.5245L250.774 97.0877Z" fill="#F40003"/>
</svg>
